<?xml version="1.0" standalone="no"?>
<!DOCTYPE svg PUBLIC "-//W3C//DTD SVG 20010904//EN"
 "http://www.w3.org/TR/2001/REC-SVG-20010904/DTD/svg10.dtd">
<svg version="1.0" xmlns="http://www.w3.org/2000/svg"
 width="306.000000pt" height="275.000000pt" viewBox="0 0 306.000000 275.000000"
 preserveAspectRatio="xMidYMid meet">
<metadata>
Created by potrace 1.16, written by Peter Selinger 2001-2019
</metadata>
<g transform="translate(0.000000,275.000000) scale(0.100000,-0.100000)"
fill="#000000" stroke="none">
<path d="M0 2613 l0 -136 1142 6 c628 4 1316 7 1530 7 l388 0 0 130 0 130
-1530 0 -1530 0 0 -137z"/>
<path d="M1795 2395 c24 -12 146 -14 648 -15 542 0 617 2 617 15 0 13 -78 15
-647 14 -558 -1 -644 -3 -618 -14z"/>
<path d="M0 2385 c0 -13 76 -15 623 -15 505 1 628 3 652 15 26 11 -61 13 -622
14 -574 1 -653 -1 -653 -14z"/>
<path d="M1115 2197 c-8 -19 -2 -31 13 -26 5 2 6 13 2 24 -7 19 -8 19 -15 2z"/>
<path d="M2330 2180 c21 -13 730 -13 730 0 0 6 -131 10 -372 10 -245 0 -368
-4 -358 -10z"/>
<path d="M0 2170 c0 -7 182 -10 525 -10 343 0 525 3 525 10 0 7 -182 10 -525
10 -343 0 -525 -3 -525 -10z"/>
<path d="M2457 1991 c-3 -12 -1 -21 3 -21 15 0 23 21 12 32 -6 6 -11 2 -15
-11z"/>
<path d="M1091 1968 c0 -16 -6 -28 -13 -28 -6 0 -9 -2 -7 -5 8 -7 49 7 49 17
0 5 -4 7 -9 3 -5 -3 -12 5 -14 17 -4 20 -4 19 -6 -4z"/>
<path d="M1050 1875 l0 -105 -525 0 -525 0 0 -275 0 -275 283 2 282 3 0 134 0
133 248 96 247 95 0 149 c0 81 -2 148 -5 148 -3 0 -5 -47 -5 -105z"/>
<path d="M2120 1839 c0 -11 5 -17 10 -14 6 3 10 13 10 21 0 8 -4 14 -10 14 -5
0 -10 -9 -10 -21z"/>
<path d="M1117 1817 c-3 -8 -2 -28 2 -44 l8 -28 7 28 c8 32 -7 70 -17 44z"/>
<path d="M2530 1505 l0 -275 265 0 265 0 0 275 0 275 -265 0 -265 0 0 -275z"/>
<path d="M1458 1669 c-2 -8 -2 -27 2 -44 l6 -30 6 30 c7 32 -5 69 -14 44z"/>
<path d="M1790 1639 c-40 -25 -60 -44 -60 -58 0 -6 -4 -11 -10 -11 -5 0 -10
-7 -10 -15 0 -8 -4 -15 -10 -15 -5 0 -7 -7 -4 -15 4 -8 1 -15 -6 -15 -7 0 -10
-7 -7 -15 4 -8 3 -16 -1 -19 -7 -4 -8 -72 -2 -86 1 -3 2 -8 1 -12 0 -5 3 -8 9
-8 5 0 7 -8 3 -17 -3 -10 -3 -15 2 -11 4 4 15 0 24 -10 28 -30 95 -18 138 24
23 23 32 51 13 39 -5 -3 -10 2 -10 11 0 14 3 15 12 6 21 -21 26 -16 42 38 1 3
5 10 9 16 4 7 7 31 7 55 0 64 -2 79 -12 79 -4 0 -8 6 -8 13 0 19 -32 42 -61
44 -14 1 -41 -7 -59 -18z m81 -29 c10 -6 19 -18 19 -26 0 -8 5 -12 10 -9 6 3
10 1 10 -4 0 -6 -8 -11 -17 -11 -15 0 -15 -2 2 -14 18 -13 18 -14 1 -41 -23
-35 -39 -16 -30 36 3 21 1 40 -5 43 -6 4 -33 -3 -61 -15 -28 -12 -53 -19 -57
-15 -10 9 28 46 48 46 10 0 21 5 24 10 8 13 31 13 56 0z m-41 -80 c0 -9 -31
-30 -44 -30 -12 0 -6 28 7 33 20 9 37 8 37 -3z m-90 -64 c0 -30 -5 -46 -15
-50 -21 -8 -31 22 -16 45 7 12 7 19 1 19 -17 0 -11 18 8 23 9 3 18 5 20 6 1 0
2 -19 2 -43z m90 -11 c8 -22 13 -24 30 -15 11 6 20 7 20 1 0 -5 -7 -11 -15
-15 -8 -3 -15 -14 -15 -24 0 -18 -47 -52 -73 -52 -9 0 -18 8 -20 18 -3 12 -5
9 -6 -8 l-2 -25 -10 24 c-5 13 -8 25 -7 25 2 1 20 9 41 19 20 9 37 24 37 33 0
10 -5 14 -15 10 -9 -3 -15 0 -15 8 0 13 13 23 33 25 4 1 12 -10 17 -24z"/>
<path d="M1081 1521 c-6 -29 -11 -92 -11 -141 0 -53 -4 -90 -10 -90 -5 0 -10
-5 -10 -11 0 -5 5 -7 10 -4 6 4 17 2 24 -4 9 -8 151 -71 160 -71 0 0 -1 28 -2
61 -4 57 -2 61 15 54 10 -4 30 -12 46 -17 25 -9 27 -13 27 -72 l0 -63 93 -37
c50 -21 98 -41 105 -43 9 -4 12 13 12 64 0 132 -13 314 -21 301 -7 -10 -9 -10
-10 2 0 8 -5 4 -9 -10 -5 -17 -8 -19 -9 -7 -1 9 -8 17 -16 17 -8 0 -15 7 -15
16 0 8 -4 13 -9 9 -5 -3 -12 3 -14 12 -3 11 -5 6 -7 -12 -1 -26 -3 -27 -10
-10 l-9 20 -2 -20 c-1 -12 -5 -6 -9 15 -7 33 -8 31 -10 -20 l-3 -55 -7 45 c-4
25 -8 38 -9 30 -2 -11 -5 -9 -11 5 -7 17 -9 14 -11 -15 l-2 -35 -7 40 c-4 23
-8 30 -9 17 -1 -21 -2 -22 -17 -8 -20 21 -41 21 -24 0 12 -13 10 -14 -13 -3
-15 7 -27 19 -28 28 0 12 -3 11 -9 -4 -7 -17 -9 -16 -10 10 l-2 30 -8 -30 -8
-30 -2 35 -3 35 -7 -40 -7 -40 -3 35 c-2 33 -3 33 -10 10 -7 -22 -8 -20 -10
15 -2 35 -3 37 -10 15 -4 -14 -8 -19 -9 -11 -1 8 -4 11 -8 8 -3 -4 -12 1 -19
11 -11 14 -13 14 -14 2 0 -12 -2 -13 -9 -1 -6 9 -12 -2 -20 -38z"/>
<path d="M617 1386 c-3 -8 -2 -27 3 -43 5 -15 9 -20 9 -10 1 9 5 17 10 17 10
0 3 38 -9 45 -4 3 -10 -1 -13 -9z"/>
<path d="M593 1279 c-9 -9 -14 -56 -15 -148 l-2 -136 -3 110 -4 110 -284 -3
-285 -3 0 -354 0 -355 348 -3 347 -2 -347 -3 -348 -2 0 -245 0 -245 1530 0
1530 0 0 250 0 250 -402 3 -403 2 403 3 402 2 0 355 0 355 -265 0 -264 0 -3
-170 c-2 -131 0 -170 10 -170 35 0 -7 -23 -196 -109 -114 -52 -336 -155 -494
-228 -157 -73 -292 -133 -300 -133 -7 1 -24 7 -38 15 -24 13 -24 13 15 8 35
-4 60 5 190 67 83 40 175 83 205 97 30 14 106 49 169 79 62 30 115 54 116 54
2 0 61 27 132 61 70 34 139 65 152 70 13 5 21 12 18 16 -7 6 -319 -134 -582
-262 -130 -63 -334 -157 -372 -172 -10 -4 -13 40 -13 199 0 224 -9 355 -21
303 -6 -29 -7 -28 -9 10 l-3 40 -7 -35 c-7 -34 -7 -34 -10 15 l-3 50 -7 -45
-7 -45 -3 40 -3 40 -7 -40 -7 -40 -3 40 c-2 36 -3 37 -10 15 l-8 -25 -2 25
c-2 24 -3 23 -10 -5 -7 -29 -8 -29 -10 10 -1 22 -4 32 -7 23 -5 -19 -23 -25
-23 -7 0 5 -4 7 -10 4 -5 -3 -10 2 -10 12 0 15 -2 16 -10 3 -8 -12 -10 -10
-11 10 l-1 25 -8 -25 c-8 -25 -8 -25 -10 5 -1 26 -3 27 -10 10 -8 -18 -9 -18
-10 5 -2 24 -3 23 -10 -5 -7 -28 -8 -29 -10 -5 -1 23 -2 23 -10 5 -7 -17 -9
-14 -10 15 -1 19 -4 27 -7 18 -2 -10 -13 -18 -24 -18 -11 0 -19 7 -20 18 -1
11 -4 9 -9 -8 -7 -22 -8 -21 -10 15 l-3 40 -7 -40 -7 -40 -3 40 c-2 39 -3 39
-10 10 -7 -28 -8 -27 -10 15 l-3 45 -7 -50 -7 -50 -3 45 -3 45 -7 -35 -7 -35
-3 40 c-2 32 -4 35 -7 13 -2 -16 -9 -28 -14 -28 -5 0 -9 -56 -10 -127 -1 -134
-14 -329 -18 -278 -2 17 -4 65 -6 107 -2 43 -6 81 -9 86 -3 5 -6 51 -7 103 -3
93 -14 183 -19 144 -2 -17 -3 -17 -10 5 -7 21 -8 22 -10 5 -1 -14 -5 -9 -13
15 -7 19 -9 38 -5 41 4 3 1 14 -7 25 -16 21 -17 17 -16 -51 0 -22 -2 -35 -4
-30 -3 6 -21 10 -40 9 -21 -1 -35 3 -35 10 0 6 -5 4 -10 -4 -8 -12 -10 -10
-11 10 0 23 -1 23 -9 5 -8 -18 -9 -18 -10 5 -1 23 -2 23 -10 5 -8 -18 -9 -18
-9 -2 -1 10 -5 15 -11 12 -5 -3 -10 0 -10 7 0 10 -2 10 -9 -1 -6 -9 -11 -10
-15 -2 -4 6 -11 9 -16 6 -4 -3 -11 2 -14 11 -4 9 -13 14 -21 10 -8 -3 -15 0
-16 7 0 7 -4 3 -9 -8 -7 -17 -9 -16 -10 10 -2 30 -2 30 -10 5 -7 -23 -8 -23
-10 10 -2 33 -3 33 -10 10 -7 -21 -8 -22 -10 -5 l-1 20 -9 -20 c-8 -18 -9 -18
-10 5 -1 23 -2 23 -9 5 -8 -18 -9 -19 -12 -2 -3 15 -6 16 -16 6z m226 -391
c17 -10 21 -23 21 -65 0 -29 -2 -53 -5 -53 -3 0 -24 9 -45 20 -39 20 -40 21
-40 75 0 54 0 54 24 45 14 -5 34 -15 45 -22z m1749 -86 l3 -41 -60 -31 c-33
-16 -63 -30 -66 -30 -3 0 -5 21 -5 48 0 47 0 48 53 74 28 14 57 25 62 24 6 -2
11 -21 13 -44z m-438 -202 l0 -50 -52 -27 c-29 -15 -56 -29 -60 -31 -5 -2 -8
19 -8 47 l0 51 58 29 c31 17 58 30 60 31 1 0 2 -22 2 -50z m-460 -223 l0 -53
-55 -27 c-31 -15 -58 -27 -60 -27 -3 0 -5 24 -5 53 l0 53 53 26 c28 15 55 27
60 27 4 1 7 -23 7 -52z"/>
<path d="M2289 1236 c-29 -13 -69 -51 -69 -66 0 -5 -4 -10 -10 -10 -5 0 -10
-6 -10 -14 0 -8 -5 -16 -10 -18 -6 -2 -13 -17 -15 -33 -2 -17 -4 -30 -5 -30
-8 0 -5 -86 4 -105 14 -32 32 -51 40 -43 3 4 6 1 6 -6 0 -7 5 -9 10 -6 6 3 10
2 10 -4 0 -7 8 -7 24 -1 13 5 27 6 30 3 3 -4 6 -1 6 5 0 7 5 12 11 12 16 0 79
68 79 85 0 8 4 15 9 15 5 0 12 17 17 38 10 49 12 112 2 112 -4 0 -7 3 -6 8 5
15 -23 51 -44 58 -35 11 -52 11 -79 0z m11 -26 c0 -5 -5 -10 -11 -10 -5 0 -7
5 -4 10 3 6 8 10 11 10 2 0 4 -4 4 -10z m61 -10 c10 -6 19 -18 19 -26 0 -8 5
-12 10 -9 6 3 10 1 10 -4 0 -6 -8 -11 -17 -11 -15 0 -15 -1 1 -13 15 -11 16
-17 5 -40 -7 -15 -16 -27 -20 -27 -13 0 -19 29 -12 61 8 44 -10 51 -70 28 -27
-11 -52 -17 -55 -14 -9 9 30 45 49 45 10 0 21 5 24 10 8 13 31 13 56 0z m-41
-80 c0 -9 -31 -30 -44 -30 -12 0 -6 28 7 33 20 9 37 8 37 -3z m-102 -111 c-33
-21 -38 8 -10 62 l17 34 3 -44 c2 -28 -1 -47 -10 -52z m102 36 c8 -21 14 -24
37 -20 l28 6 -22 -17 c-13 -9 -23 -22 -23 -30 0 -7 -10 -20 -22 -28 -25 -17
-68 -21 -68 -7 0 5 -10 11 -22 13 -18 3 -13 7 25 22 32 13 47 24 47 37 0 12
-5 16 -15 13 -9 -4 -15 0 -15 9 0 14 13 24 33 26 4 1 12 -10 17 -24z m50 -49
c0 -3 -4 -8 -10 -11 -5 -3 -10 -1 -10 4 0 6 5 11 10 11 6 0 10 -2 10 -4z
m-130 -56 c0 -5 -4 -10 -10 -10 -5 0 -10 5 -10 10 0 6 5 10 10 10 6 0 10 -4
10 -10z"/>
<path d="M1967 1167 c-3 -8 -3 -26 0 -38 6 -23 7 -23 15 6 8 30 -5 58 -15 32z"/>
<path d="M1441 1034 c0 -11 3 -14 6 -6 3 7 2 16 -1 19 -3 4 -6 -2 -5 -13z"/>
<path d="M1627 1017 c-3 -8 -3 -26 0 -38 6 -23 7 -23 15 6 8 30 -5 58 -15 32z"/>
</g>
</svg>
