<?xml version="1.0" encoding="UTF-8" standalone="no"?>
<!-- Created with Inkscape (http://www.inkscape.org/) -->

<svg
   width="646.8125"
   height="192.70654"
   viewBox="0 0 171.13581 50.986938"
   version="1.1"
   id="svg5"
   xml:space="preserve"
   xmlns="http://www.w3.org/2000/svg"
   xmlns:svg="http://www.w3.org/2000/svg"><defs
     id="defs2"><clipPath
       clipPathUnits="userSpaceOnUse"
       id="clipPath100-1"><path
         style="fill:none;stroke:#000000;stroke-width:0.945824px;stroke-linecap:butt;stroke-linejoin:miter;stroke-opacity:1"
         d="m 109.84987,429.74675 239.28577,47.65088 50.13761,-72.69328 9.52183,-75.94317 L 423.86883,270.9826 421.30215,82.859737 298.94575,-46.95685 c 0,0 -169.64773,108.284671 -185.00219,111.498598 -15.355221,3.214482 -176.475019,100.891592 -182.787,101.505552 -6.312123,0.61371 67.44888,240.91891 67.44888,240.91891 z"
         id="path101-6" /></clipPath></defs><g
     id="layer1"
     transform="translate(-4094.3427,-1145.3067)"><text
       xml:space="preserve"
       style="font-style:normal;font-variant:normal;font-weight:normal;font-stretch:normal;font-size:25.4px;line-height:1.25;font-family:'TeX Gyre Adventor';-inkscape-font-specification:'TeX Gyre Adventor';letter-spacing:0px;word-spacing:0px;fill:#000000;fill-opacity:1;stroke:none;stroke-width:0.264583"
       x="4146.7334"
       y="1182.1865"
       id="text20-8-3-3-7-0-1-4"><tspan
         style="font-style:normal;font-variant:normal;font-weight:bold;font-stretch:normal;font-size:25.4px;font-family:'TeX Gyre Adventor';-inkscape-font-specification:'TeX Gyre Adventor';fill:#ff0000;stroke-width:0.264583"
         x="4146.7334"
         y="1182.1865"
         id="tspan17-2-0-5"><tspan
   style="fill:#a02c5a"
   id="tspan11-7-3-2-7-5">F</tspan><tspan
   id="tspan25-53-5-9-6-5"
   style="fill:#aa4400">i</tspan><tspan
   style="fill:#6f6f91"
   id="tspan27-5-6-7-0-6">f</tspan><tspan
   style="fill:#ab37c8"
   id="tspan32-6-2-5-1-0">t</tspan><tspan
   style="fill:#c83771"
   id="tspan36-2-9-64-0-6">h</tspan><tspan
   style="fill:#93ac9d"
   id="tspan23-6-2-2">X</tspan><tspan
   style="fill:#00ccff"
   id="tspan49-1-7-3-5-6">e</tspan><tspan
   style="fill:#ffcc00"
   id="tspan50-2-0-7-1-9">n</tspan><tspan
   style="fill:#ac939d"
   id="tspan51-7-9-9-9-9">i</tspan>a</tspan></text><g
       id="g3-3-6-0-1-6-1-5-90-3"
       transform="matrix(-0.09344718,0.05395177,0.05395177,0.09344718,4125.8295,1132.0534)"
       clip-path="url(#clipPath100-1)"><polygon
         style="fill:#f27524"
         points="181.923,292.028 408.51,270.241 408.51,199.356 181.923,85.224 "
         id="polygon1-2-0-4-6-3-9-0-9-4-7" /><g
         id="g2-3-7-3-4-2-4-3-9-8-7">
	<path
   style="fill:#f99a25"
   d="m 164.493,199.356 c 0,0 0.065,81.778 0.098,81.778 l 30.404,10.894 V 166.676 Z"
   id="path1-7-8-0-6-1-2-7-0-5-1" />
	<rect
   x="225.49699"
   y="166.672"
   style="fill:#f99a25"
   width="30.502001"
   height="125.353"
   id="rect1-5-6-3-2-5-2-8-7-1-2" />
	<rect
   x="286.50201"
   y="166.672"
   style="fill:#f99a25"
   width="30.502001"
   height="125.353"
   id="rect2-3-9-8-0-5-9-6-8-6-29-1" />
	<polygon
   style="fill:#f99a25"
   points="347.506,292.028 378.008,292.028 378.008,194.16 347.506,166.676 "
   id="polygon2-2-8-9-8-91-4-6-3-73-0" />
</g><path
         style="fill:#ec5123"
         d="M 378.008,270.239 258.331,503.82 C 341.798,502.981 408.51,435.757 408.51,352.083 v -81.844 z"
         id="path2-2-4-2-6-4-1-0-7-8-89" /><path
         style="fill:#f27524"
         d="m 378.008,270.239 v 81.844 c 0,83.543 -53.139,150.691 -119.677,151.737 -0.534,0.011 -1.057,0.011 -1.58,0.011 l -92.258,-173.23 v -60.362 z"
         id="path3-8-3-5-2-91-2-4-6-0-0" /><path
         style="fill:#f99a25"
         d="m 164.493,330.603 v -60.362 l -30.502,-32.715 -30.404,43.608 c -0.044,0 0.011,70.242 0.011,70.242 0,84.197 68.957,152.456 153.153,152.456 V 424.33 c 0.207,-51.558 -40.709,-93.52 -92.258,-93.727 z"
         id="path4-9-1-4-8-0-8-6-1-9-1" /><g
         id="g9-7-4-0-4-7-8-7-5-2-3">
	<path
   style="fill:#b72391"
   d="m 164.493,199.354 v 70.896 c -15.251,0.022 -22.855,5.501 -30.502,10.959 l -10.894,-56.178 10.894,-56.178 c 16.841,-0.001 30.502,13.66 30.502,30.501 z"
   id="path5-3-9-5-7-5-9-6-0-3-4" />
	<path
   style="fill:#b72391"
   d="m 194.995,51.059 -10.894,68.701 10.894,68.701 c 7.626,-5.447 15.251,-10.894 30.502,-10.894 V 81.562 c 0,-16.853 -13.66,-30.503 -30.502,-30.503 z"
   id="path6-6-2-9-2-8-2-0-6-1-8" />
	<path
   style="fill:#b72391"
   d="m 255.999,8.171 -10.894,90.139 10.894,90.139 c 7.626,5.447 15.251,10.904 30.502,10.904 V 38.673 C 286.502,21.821 272.841,8.171 255.999,8.171 Z"
   id="path7-1-0-4-4-7-8-9-5-8-5" />
	<path
   style="fill:#b72391"
   d="m 317.004,51.55 -10.894,72.639 10.894,64.272 c 7.626,-5.447 15.251,-10.894 30.502,-10.894 V 82.052 c 0,-16.842 -13.661,-30.502 -30.502,-30.502 z"
   id="path8-2-6-6-0-0-8-7-0-7-8" />
	<path
   style="fill:#b72391"
   d="m 408.51,148.448 v 50.906 c -15.251,0 -22.877,-5.447 -30.502,-10.894 l -10.894,-35.257 10.894,-35.257 c 16.841,0 30.502,13.661 30.502,30.502 z"
   id="path9-9-8-9-6-4-8-5-8-41-2" />
</g><g
         id="g14-3-9-2-2-8-6-9-1-63-2">
	<path
   style="fill:#f21897"
   d="m 133.991,168.852 v 112.357 c -7.593,5.425 -15.218,10.828 -30.404,10.828 -0.033,0 -0.098,-92.683 -0.098,-92.683 0,-16.841 13.66,-30.502 30.502,-30.502 z"
   id="path10-1-2-2-9-04-8-7-2-8-0" />
	<path
   style="fill:#f21897"
   d="M 194.995,51.059 V 188.46 c -7.626,5.447 -15.251,10.894 -30.502,10.894 V 81.562 c 0,-16.853 13.661,-30.503 30.502,-30.503 z"
   id="path11-9-6-47-9-2-3-8-2-5-6" />
	<path
   style="fill:#f21897"
   d="M 255.999,8.171 V 188.45 c -7.626,-5.436 -15.262,-10.883 -30.502,-10.883 V 81.562 38.673 c 0,-16.852 13.661,-30.502 30.502,-30.502 z"
   id="path12-4-6-7-0-9-8-5-6-5-36" />
	<path
   style="fill:#f21897"
   d="m 317.004,51.55 v 136.911 c -7.626,5.447 -15.251,10.894 -30.491,10.894 -0.011,0 -0.011,-117.302 -0.011,-117.302 0,-16.843 13.66,-30.503 30.502,-30.503 z"
   id="path13-7-4-5-8-61-3-3-9-01-1" />
	<path
   style="fill:#f21897"
   d="m 378.008,117.946 v 70.514 c -7.626,-5.447 -15.251,-10.894 -30.502,-10.894 v -29.119 c 0,-16.84 13.66,-30.501 30.502,-30.501 z"
   id="path14-8-9-48-1-0-3-3-1-2-0" />
</g><path
         d="m 378.008,109.776 c -8.315,0 -16.019,2.647 -22.332,7.129 V 82.053 c 0,-21.324 -17.348,-38.672 -38.672,-38.672 -8.315,0 -16.019,2.647 -22.332,7.129 V 38.672 C 294.672,17.348 277.324,0 255.999,0 234.675,0 217.327,17.348 217.327,38.672 v 11.346 c -6.313,-4.483 -14.017,-7.13 -22.332,-7.13 -21.324,0 -38.672,17.348 -38.672,38.672 v 86.255 c -6.313,-4.483 -14.017,-7.13 -22.332,-7.13 -21.324,0 -38.672,17.348 -38.672,38.678 l 0.108,152.01 c 0,88.569 72.372,160.626 161.329,160.626 42.906,0 83.117,-16.582 113.229,-46.691 30.112,-30.11 46.695,-70.32 46.695,-113.226 V 148.448 c 0,-21.324 -17.348,-38.672 -38.672,-38.672 z m 0,16.34 c 12.314,0 22.332,10.018 22.332,22.332 v 42.037 c -7.387,-1.392 -12.047,-4.716 -17.582,-8.669 -6.8,-4.857 -14.377,-10.241 -27.082,-11.894 v -21.476 c 0,-12.312 10.018,-22.33 22.332,-22.33 z m -83.336,135.96 v -55.068 c 12.706,-1.651 20.285,-7.036 27.086,-11.894 5.534,-3.953 10.193,-7.276 17.578,-8.668 v 75.631 h -44.664 z m -61.004,0 v -75.632 c 7.39,1.392 12.052,4.716 17.589,8.67 6.8,4.856 14.375,10.239 27.075,11.893 v 55.071 h -44.664 z m -61.005,0 v -55.069 c 12.704,-1.653 20.282,-7.036 27.082,-11.894 5.535,-3.953 10.195,-7.276 17.582,-8.668 v 75.631 z M 317.004,59.721 c 12.314,0 22.332,10.018 22.332,22.332 v 87.87 c -12.7,1.654 -20.276,7.036 -27.075,11.893 -5.536,3.954 -10.198,7.279 -17.589,8.67 V 82.053 c 0,-12.313 10.018,-22.332 22.332,-22.332 z M 233.668,38.672 c 0,-12.314 10.018,-22.332 22.332,-22.332 12.314,0 22.332,10.018 22.332,22.332 v 151.812 c -7.384,-1.393 -12.044,-4.716 -17.578,-8.668 -6.801,-4.857 -14.381,-10.242 -27.086,-11.894 z m -38.673,20.557 c 12.314,0 22.332,10.018 22.332,22.332 v 88.364 c -12.702,1.653 -20.28,7.036 -27.079,11.893 -5.535,3.953 -10.196,7.277 -17.584,8.669 V 81.561 c -10e-4,-12.315 10.017,-22.332 22.331,-22.332 z m -61.004,117.798 c 12.314,0 22.332,10.018 22.332,22.332 v 63.252 c -12.645,1.667 -20.201,7.036 -26.985,11.881 -5.544,3.96 -10.213,7.287 -17.62,8.675 l -0.059,-83.808 c 0,-12.315 10.018,-22.332 22.332,-22.332 z M 256.755,495.66 c -79.947,0 -144.989,-64.727 -144.989,-144.292 l -0.037,-51.683 c 12.718,-1.648 20.301,-7.036 27.107,-11.896 5.512,-3.937 10.154,-7.25 17.486,-8.653 v 51.467 c 0,4.499 3.637,8.152 8.138,8.17 46.576,0.187 84.313,38.552 84.125,85.52 -0.019,4.512 3.625,8.185 8.138,8.203 4.531,0 8.184,-3.636 8.203,-8.138 0.11,-27.144 -10.211,-52.668 -29.06,-71.873 -17.008,-17.328 -39.205,-27.705 -63.203,-29.701 v -44.369 h 203.166 c 4.513,0 8.17,-3.658 8.17,-8.17 0,-4.512 -3.657,-8.17 -8.17,-8.17 h -20.153 v -75.631 c 7.388,1.392 12.049,4.715 17.584,8.669 6.8,4.857 14.376,10.241 27.079,11.894 V 352.084 C 400.34,431.251 335.928,495.66 256.755,495.66 Z"
         id="path15-4-5-1-3-4-3-8-0-6-5" /><circle
         cx="354.79401"
         cy="369.85999"
         r="8.1700001"
         id="circle15-5-0-2-1-2-8-3-4-48-7" /><circle
         cx="322.11301"
         cy="402.54099"
         r="8.1700001"
         id="circle16-0-4-8-1-2-0-7-2-56-4" /></g><g
       id="g3-3-6-0-3-2-4-9-7-25-2"
       transform="matrix(0.0934472,0.05395174,-0.05395174,0.0934472,4113.9204,1132.2603)"><polygon
         style="fill:#f27524"
         points="181.923,85.224 181.923,292.028 408.51,270.241 408.51,199.356 "
         id="polygon1-2-0-4-6-4-0-7-3-4-2-0" /><g
         id="g2-3-7-3-4-0-5-6-7-0-6-0">
	<path
   style="fill:#f99a25"
   d="m 164.493,199.356 c 0,0 0.065,81.778 0.098,81.778 l 30.404,10.894 V 166.676 Z"
   id="path1-7-8-0-6-3-5-8-8-3-91-3" />
	<rect
   x="225.49699"
   y="166.672"
   style="fill:#f99a25"
   width="30.502001"
   height="125.353"
   id="rect1-5-6-3-2-9-2-9-7-2-33-39" />
	<rect
   x="286.50201"
   y="166.672"
   style="fill:#f99a25"
   width="30.502001"
   height="125.353"
   id="rect2-3-9-8-0-5-1-9-0-4-8-1-0" />
	<polygon
   style="fill:#f99a25"
   points="347.506,166.676 347.506,292.028 378.008,292.028 378.008,194.16 "
   id="polygon2-2-8-9-8-9-0-6-1-0-5-43" />
</g><path
         style="fill:#ec5123"
         d="M 378.008,270.239 258.331,503.82 C 341.798,502.981 408.51,435.757 408.51,352.083 v -81.844 z"
         id="path2-2-4-2-6-6-2-8-9-3-2-3" /><path
         style="fill:#f27524"
         d="m 378.008,270.239 v 81.844 c 0,83.543 -53.139,150.691 -119.677,151.737 -0.534,0.011 -1.057,0.011 -1.58,0.011 l -92.258,-173.23 v -60.362 z"
         id="path3-8-3-5-2-9-8-7-0-7-69-4" /><path
         style="fill:#f99a25"
         d="m 164.493,330.603 v -60.362 l -30.502,-32.715 -30.404,43.608 c -0.044,0 0.011,70.242 0.011,70.242 0,84.197 68.957,152.456 153.153,152.456 V 424.33 c 0.207,-51.558 -40.709,-93.52 -92.258,-93.727 z"
         id="path4-9-1-4-8-3-3-9-9-0-4-2" /><g
         id="g9-7-4-0-4-3-8-0-8-0-4-4">
	<path
   style="fill:#b72391"
   d="m 164.493,199.354 v 70.896 c -15.251,0.022 -22.855,5.501 -30.502,10.959 l -10.894,-56.178 10.894,-56.178 c 16.841,-0.001 30.502,13.66 30.502,30.501 z"
   id="path5-3-9-5-7-8-0-3-8-3-60-53" />
	<path
   style="fill:#b72391"
   d="m 194.995,51.059 -10.894,68.701 10.894,68.701 c 7.626,-5.447 15.251,-10.894 30.502,-10.894 V 81.562 c 0,-16.853 -13.66,-30.503 -30.502,-30.503 z"
   id="path6-6-2-9-2-0-4-3-5-4-7-8" />
	<path
   style="fill:#b72391"
   d="m 255.999,8.171 -10.894,90.139 10.894,90.139 c 7.626,5.447 15.251,10.904 30.502,10.904 V 38.673 C 286.502,21.821 272.841,8.171 255.999,8.171 Z"
   id="path7-1-0-4-4-5-0-3-8-9-43-11" />
	<path
   style="fill:#b72391"
   d="m 317.004,51.55 -10.894,72.639 10.894,64.272 c 7.626,-5.447 15.251,-10.894 30.502,-10.894 V 82.052 c 0,-16.842 -13.661,-30.502 -30.502,-30.502 z"
   id="path8-2-6-6-0-6-9-7-4-2-7-3" />
	<path
   style="fill:#b72391"
   d="m 408.51,148.448 v 50.906 c -15.251,0 -22.877,-5.447 -30.502,-10.894 l -10.894,-35.257 10.894,-35.257 c 16.841,0 30.502,13.661 30.502,30.502 z"
   id="path9-9-8-9-6-6-1-3-3-7-9-1" />
</g><g
         id="g14-3-9-2-2-4-9-2-7-4-0-5">
	<path
   style="fill:#f21897"
   d="m 133.991,168.852 v 112.357 c -7.593,5.425 -15.218,10.828 -30.404,10.828 -0.033,0 -0.098,-92.683 -0.098,-92.683 0,-16.841 13.66,-30.502 30.502,-30.502 z"
   id="path10-1-2-2-9-0-6-6-1-2-0-8" />
	<path
   style="fill:#f21897"
   d="M 194.995,51.059 V 188.46 c -7.626,5.447 -15.251,10.894 -30.502,10.894 V 81.562 c 0,-16.853 13.661,-30.503 30.502,-30.503 z"
   id="path11-9-6-47-9-0-2-5-3-5-2-1" />
	<path
   style="fill:#f21897"
   d="M 255.999,8.171 V 188.45 c -7.626,-5.436 -15.262,-10.883 -30.502,-10.883 V 81.562 38.673 c 0,-16.852 13.661,-30.502 30.502,-30.502 z"
   id="path12-4-6-7-0-4-5-2-8-2-2-3" />
	<path
   style="fill:#f21897"
   d="m 317.004,51.55 v 136.911 c -7.626,5.447 -15.251,10.894 -30.491,10.894 -0.011,0 -0.011,-117.302 -0.011,-117.302 0,-16.843 13.66,-30.503 30.502,-30.503 z"
   id="path13-7-4-5-8-6-4-6-0-4-6-3" />
	<path
   style="fill:#f21897"
   d="m 378.008,117.946 v 70.514 c -7.626,-5.447 -15.251,-10.894 -30.502,-10.894 v -29.119 c 0,-16.84 13.66,-30.501 30.502,-30.501 z"
   id="path14-8-9-48-1-2-4-5-9-4-90-97" />
</g><path
         d="m 378.008,109.776 c -8.315,0 -16.019,2.647 -22.332,7.129 V 82.053 c 0,-21.324 -17.348,-38.672 -38.672,-38.672 -8.315,0 -16.019,2.647 -22.332,7.129 V 38.672 C 294.672,17.348 277.324,0 255.999,0 234.675,0 217.327,17.348 217.327,38.672 v 11.346 c -6.313,-4.483 -14.017,-7.13 -22.332,-7.13 -21.324,0 -38.672,17.348 -38.672,38.672 v 86.255 c -6.313,-4.483 -14.017,-7.13 -22.332,-7.13 -21.324,0 -38.672,17.348 -38.672,38.678 l 0.108,152.01 c 0,88.569 72.372,160.626 161.329,160.626 42.906,0 83.117,-16.582 113.229,-46.691 30.112,-30.11 46.695,-70.32 46.695,-113.226 V 148.448 c 0,-21.324 -17.348,-38.672 -38.672,-38.672 z m 0,16.34 c 12.314,0 22.332,10.018 22.332,22.332 v 42.037 c -7.387,-1.392 -12.047,-4.716 -17.582,-8.669 -6.8,-4.857 -14.377,-10.241 -27.082,-11.894 v -21.476 c 0,-12.312 10.018,-22.33 22.332,-22.33 z m -83.336,135.96 v -55.068 c 12.706,-1.651 20.285,-7.036 27.086,-11.894 5.534,-3.953 10.193,-7.276 17.578,-8.668 v 75.631 h -44.664 z m -61.004,0 v -75.632 c 7.39,1.392 12.052,4.716 17.589,8.67 6.8,4.856 14.375,10.239 27.075,11.893 v 55.071 h -44.664 z m -61.005,0 v -55.069 c 12.704,-1.653 20.282,-7.036 27.082,-11.894 5.535,-3.953 10.195,-7.276 17.582,-8.668 v 75.631 z M 317.004,59.721 c 12.314,0 22.332,10.018 22.332,22.332 v 87.87 c -12.7,1.654 -20.276,7.036 -27.075,11.893 -5.536,3.954 -10.198,7.279 -17.589,8.67 V 82.053 c 0,-12.313 10.018,-22.332 22.332,-22.332 z M 233.668,38.672 c 0,-12.314 10.018,-22.332 22.332,-22.332 12.314,0 22.332,10.018 22.332,22.332 v 151.812 c -7.384,-1.393 -12.044,-4.716 -17.578,-8.668 -6.801,-4.857 -14.381,-10.242 -27.086,-11.894 z m -38.673,20.557 c 12.314,0 22.332,10.018 22.332,22.332 v 88.364 c -12.702,1.653 -20.28,7.036 -27.079,11.893 -5.535,3.953 -10.196,7.277 -17.584,8.669 V 81.561 c -10e-4,-12.315 10.017,-22.332 22.331,-22.332 z m -61.004,117.798 c 12.314,0 22.332,10.018 22.332,22.332 v 63.252 c -12.645,1.667 -20.201,7.036 -26.985,11.881 -5.544,3.96 -10.213,7.287 -17.62,8.675 l -0.059,-83.808 c 0,-12.315 10.018,-22.332 22.332,-22.332 z M 256.755,495.66 c -79.947,0 -144.989,-64.727 -144.989,-144.292 l -0.037,-51.683 c 12.718,-1.648 20.301,-7.036 27.107,-11.896 5.512,-3.937 10.154,-7.25 17.486,-8.653 v 51.467 c 0,4.499 3.637,8.152 8.138,8.17 46.576,0.187 84.313,38.552 84.125,85.52 -0.019,4.512 3.625,8.185 8.138,8.203 4.531,0 8.184,-3.636 8.203,-8.138 0.11,-27.144 -10.211,-52.668 -29.06,-71.873 -17.008,-17.328 -39.205,-27.705 -63.203,-29.701 v -44.369 h 203.166 c 4.513,0 8.17,-3.658 8.17,-8.17 0,-4.512 -3.657,-8.17 -8.17,-8.17 h -20.153 v -75.631 c 7.388,1.392 12.049,4.715 17.584,8.669 6.8,4.857 14.376,10.241 27.079,11.894 V 352.084 C 400.34,431.251 335.928,495.66 256.755,495.66 Z"
         id="path15-4-5-1-3-6-9-8-7-3-3-5" /><circle
         cx="354.79401"
         cy="369.85999"
         r="8.1700001"
         id="circle15-5-0-2-1-7-9-7-9-8-5-4" /><circle
         cx="322.11301"
         cy="402.54099"
         r="8.1700001"
         id="circle16-0-4-8-1-5-3-9-9-6-58-49" /></g></g></svg>
