<?xml version="1.0" encoding="UTF-8" standalone="no"?>
<!-- Created with Inkscape (http://www.inkscape.org/) -->

<svg
   width="724.2901"
   height="624.18994"
   viewBox="0 0 191.63509 165.15025"
   version="1.1"
   id="svg5"
   xml:space="preserve"
   xmlns:xlink="http://www.w3.org/1999/xlink"
   xmlns="http://www.w3.org/2000/svg"
   xmlns:svg="http://www.w3.org/2000/svg"><defs
     id="defs2"><linearGradient
       id="linearGradient105"><stop
         style="stop-color:#bce0a5;stop-opacity:1;"
         offset="0"
         id="stop105" /><stop
         style="stop-color:#608ada;stop-opacity:1;"
         offset="1"
         id="stop106" /></linearGradient><linearGradient
       id="linearGradient33"><stop
         style="stop-color:#bce0a5;stop-opacity:1;"
         offset="0"
         id="stop33" /><stop
         style="stop-color:#608ada;stop-opacity:1;"
         offset="1"
         id="stop34" /></linearGradient><linearGradient
       id="linearGradient26"><stop
         style="stop-color:#f010ba;stop-opacity:1;"
         offset="0"
         id="stop26" /><stop
         style="stop-color:#d4d2c8;stop-opacity:1;"
         offset="1"
         id="stop27" /></linearGradient><linearGradient
       id="linearGradient24"><stop
         style="stop-color:#d2a12e;stop-opacity:1;"
         offset="0"
         id="stop24" /><stop
         style="stop-color:#9450e0;stop-opacity:1;"
         offset="1"
         id="stop25" /></linearGradient><linearGradient
       xlink:href="#linearGradient24"
       id="linearGradient35-6"
       gradientUnits="userSpaceOnUse"
       gradientTransform="matrix(0.04789837,0,0,0.04789837,2755.4761,2689.9213)"
       x1="11486.451"
       y1="-9986.1758"
       x2="11899.414"
       y2="-9986.1758" /><linearGradient
       xlink:href="#linearGradient26"
       id="linearGradient36-7"
       gradientUnits="userSpaceOnUse"
       gradientTransform="matrix(0.04789837,0,0,0.04789837,2755.4761,2689.9213)"
       x1="11486.038"
       y1="-9982.8809"
       x2="11904.758"
       y2="-9982.8809" /><linearGradient
       xlink:href="#linearGradient33"
       id="linearGradient37-3"
       gradientUnits="userSpaceOnUse"
       gradientTransform="matrix(0.01293231,-0.0430555,0.02239945,0.0248581,2976.9699,3248.8715)"
       x1="14893.34"
       y1="6140.8252"
       x2="15247.542"
       y2="6140.8252" /><linearGradient
       xlink:href="#linearGradient105"
       id="linearGradient106"
       x1="2532.0376"
       y1="14087.573"
       x2="2878.3538"
       y2="14087.573"
       gradientUnits="userSpaceOnUse"
       gradientTransform="matrix(0.02394917,-0.04148121,0.04148121,0.02394917,2665.6731,1986.5338)" /></defs><g
     id="layer6"
     transform="translate(-3219.9792,-2160.0582)"><path
       style="fill:#8eff00;fill-opacity:1;stroke:#000000;stroke-width:4.01062;stroke-linecap:butt;stroke-linejoin:miter;stroke-dasharray:none;stroke-opacity:1"
       d="m 3315.7535,2164.0542 -92.2932,159.1489 h 184.6712 z"
       id="path28-5-6" /><path
       style="fill:#fff600;fill-opacity:1;stroke:#000000;stroke-width:2;stroke-linecap:butt;stroke-linejoin:miter;stroke-dasharray:none;stroke-opacity:1"
       d="m 3261.5569,2273.9382 h 106.9212 l 19.504,33.782 h -146.0695 z"
       id="path80-0-4" /><g
       id="g84-2-0"
       transform="translate(738.47902,754.77826)"
       style="fill:#fff600;fill-opacity:1;stroke-width:2;stroke-dasharray:none"><path
         style="fill:#fff600;fill-opacity:1;stroke:#000000;stroke-width:2;stroke-linecap:butt;stroke-linejoin:miter;stroke-dasharray:none;stroke-opacity:1"
         d="m 2546.4639,1478.094 h 59.7748 l -29.3801,-50.8878 z"
         id="path84-5-0" /></g><path
       style="fill:#fff600;fill-opacity:1;stroke:#000000;stroke-width:2;stroke-linecap:butt;stroke-linejoin:miter;stroke-dasharray:none;stroke-opacity:1"
       d="m 3283.8265,2235.8787 62.5811,0.093 19.6657,34.1675 -102.0301,-0.1819 z"
       id="path79-3-9-8-4" /><text
       xml:space="preserve"
       style="font-style:normal;font-variant:normal;font-weight:normal;font-stretch:normal;font-size:7.05556px;line-height:1.25;font-family:'TeX Gyre Adventor';-inkscape-font-specification:'TeX Gyre Adventor';letter-spacing:0px;word-spacing:0px;fill:#000000;fill-opacity:1;stroke:none;stroke-width:0.264583"
       x="3264.4902"
       y="2246.8054"
       id="text20-8-3-3-7-0-1-4-5-7-8-9-4-0-4-8-9-0-3-3-9-6-6"><tspan
         style="font-style:normal;font-variant:normal;font-weight:bold;font-stretch:normal;font-size:7.05556px;font-family:'TeX Gyre Adventor';-inkscape-font-specification:'TeX Gyre Adventor';fill:#000000;fill-opacity:1;stroke-width:0.264583"
         x="3264.4902"
         y="2246.8054"
         id="tspan88-7-2-2">          For X to be at Y, </tspan><tspan
         style="font-style:normal;font-variant:normal;font-weight:bold;font-stretch:normal;font-size:7.05556px;font-family:'TeX Gyre Adventor';-inkscape-font-specification:'TeX Gyre Adventor';fill:#000000;fill-opacity:1;stroke-width:0.264583"
         x="3264.4902"
         y="2255.6743"
         id="tspan95-8-6">        needs W. Reframe W </tspan><tspan
         style="font-style:normal;font-variant:normal;font-weight:bold;font-stretch:normal;font-size:7.05556px;font-family:'TeX Gyre Adventor';-inkscape-font-specification:'TeX Gyre Adventor';fill:#000000;fill-opacity:1;stroke-width:0.264583"
         x="3264.4902"
         y="2264.5432"
         id="tspan89-5-4-7">     for Y-1, tell Z. Y-1 does Z.</tspan></text><text
       xml:space="preserve"
       style="font-style:normal;font-variant:normal;font-weight:normal;font-stretch:normal;font-size:7.05556px;line-height:1.25;font-family:'TeX Gyre Adventor';-inkscape-font-specification:'TeX Gyre Adventor';letter-spacing:0px;word-spacing:0px;fill:#000000;fill-opacity:1;stroke:none;stroke-width:0.264583"
       x="3263.927"
       y="2283.6545"
       id="text20-8-3-3-7-0-1-4-5-7-8-9-4-0-4-8-9-0-3-3-9-5-7-5"><tspan
         style="font-style:normal;font-variant:normal;font-weight:bold;font-stretch:normal;font-size:7.05556px;font-family:'TeX Gyre Adventor';-inkscape-font-specification:'TeX Gyre Adventor';fill:#000000;fill-opacity:1;stroke-width:0.264583"
         x="3263.927"
         y="2283.6545"
         id="tspan88-7-4-2-6">          For X to be at Y, </tspan><tspan
         style="font-style:normal;font-variant:normal;font-weight:bold;font-stretch:normal;font-size:7.05556px;font-family:'TeX Gyre Adventor';-inkscape-font-specification:'TeX Gyre Adventor';fill:#000000;fill-opacity:1;stroke-width:0.264583"
         x="3263.927"
         y="2292.5234"
         id="tspan95-0-4-9">        needs W. Reframe W </tspan><tspan
         style="font-style:normal;font-variant:normal;font-weight:bold;font-stretch:normal;font-size:7.05556px;font-family:'TeX Gyre Adventor';-inkscape-font-specification:'TeX Gyre Adventor';fill:#000000;fill-opacity:1;stroke-width:0.264583"
         x="3263.927"
         y="2301.3923"
         id="tspan89-5-5-0-8">     for Y-1, tell Z. Y-1 does Z.</tspan></text><circle
       style="font-variation-settings:normal;fill:#fff600;fill-opacity:1;stroke:none;stroke-width:2;stroke-linecap:butt;stroke-linejoin:miter;stroke-miterlimit:4;stroke-dasharray:none;stroke-dashoffset:0;stroke-opacity:1"
       id="path98-2"
       cx="3307.1421"
       cy="2314.9941"
       r="1.9513021" /><circle
       style="font-variation-settings:normal;fill:#fff600;fill-opacity:1;stroke:none;stroke-width:2;stroke-linecap:butt;stroke-linejoin:miter;stroke-miterlimit:4;stroke-dasharray:none;stroke-dashoffset:0;stroke-opacity:1"
       id="path98-1-9"
       cx="3314.1453"
       cy="2314.9941"
       r="1.9513021" /><circle
       style="font-variation-settings:normal;fill:#fff600;fill-opacity:1;stroke:none;stroke-width:2;stroke-linecap:butt;stroke-linejoin:miter;stroke-miterlimit:4;stroke-dasharray:none;stroke-dashoffset:0;stroke-opacity:1"
       id="path98-6-9"
       cx="3321.2559"
       cy="2314.9778"
       r="1.9513021" /><g
       id="g19-0-6-3-3-0-4"
       transform="matrix(0.02394917,-0.04148121,0.04148121,0.02394917,2916.1272,2644.5176)"><path
         style="fill:#f99a25;stroke-width:0.801078"
         d="m 12140.843,2635.3587 31.251,54.1285 33.308,19.8848 -6.258,-48.5264 c 0.02,-0.012 -36.372,-62.985 -36.372,-62.985 -43.592,-75.5025 -80.622,-123.8743 -125.812,-97.784 l 48.169,56.74 c 26.582,46.2979 27.939,94.3301 55.714,78.5421 z"
         id="path4-9-1-4-8-3-3-9-9-0-4-2-5-4-6-08-2-2-9-1-3-1-9-9" /><polygon
         style="fill:#f27524"
         points="181.923,85.224 181.923,292.028 408.51,270.241 408.51,199.356 "
         id="polygon1-2-0-4-6-4-0-7-3-4-2-0-9-4-0-9-0-5-0-6-1-32-3-1-7-1"
         transform="matrix(0.4948179,0.8570498,-0.74771056,0.43169092,12199.49,2290.7982)" /><g
         id="g2-3-7-3-4-0-5-6-7-0-6-0-3-3-8-6-5-6-9-4-7-1-8-9-9-0"
         transform="rotate(60,4152.5233,11726.749)">
	<path
   style="fill:#f99a25"
   d="m 164.493,199.356 c 0,0 0.065,81.778 0.098,81.778 l 30.404,10.894 V 166.676 Z"
   id="path1-7-8-0-6-3-5-8-8-3-91-3-1-0-8-4-9-5-0-9-7-5-0-0-9-7" />
	<rect
   x="225.49699"
   y="166.672"
   style="fill:#f99a25"
   width="30.502001"
   height="125.353"
   id="rect1-5-6-3-2-9-2-9-7-2-33-39-9-3-5-3-4-9-4-5-1-9-4-5-3-5" />
	<rect
   x="286.50201"
   y="166.672"
   style="fill:#f99a25"
   width="30.502001"
   height="125.353"
   id="rect2-3-9-8-0-5-1-9-0-4-8-1-0-4-0-0-3-6-9-0-0-1-9-7-6-2-8" />
	<polygon
   style="fill:#f99a25"
   points="378.008,194.16 347.506,166.676 347.506,292.028 378.008,292.028 "
   id="polygon2-2-8-9-8-9-0-6-1-0-5-43-7-9-96-3-9-07-1-4-5-1-6-7-4-7" />
</g><g
         id="g9-7-4-0-4-3-8-0-8-0-4-4-0-05-1-4-7-5-1-7-9-4-8-7-3-0"
         transform="rotate(60,4152.5233,11726.749)">
	<path
   style="fill:#b72391"
   d="m 164.49299,231.09788 1e-5,39.15212 c -15.251,0.022 -22.855,5.501 -30.502,10.959 l -2.00958,-56.178 2.00957,8.10531 c 16.841,-0.001 30.502,-18.87943 30.502,-2.03843 z"
   id="path5-3-9-5-7-8-0-3-8-3-60-53-3-9-15-8-7-0-1-2-7-91-9-4-7-4" />
	<path
   style="fill:#b72391"
   d="M 194.99499,119.19458 184.101,119.76 l 10.894,68.701 c 7.626,-5.447 15.251,-10.894 30.502,-10.894 l -1e-5,-50.39931 c 0,-16.853 -13.66,-7.97311 -30.502,-7.97311 z"
   id="path6-6-2-9-2-0-4-3-5-4-7-8-6-46-9-8-5-6-3-7-7-0-0-0-1-8" />
	<path
   style="fill:#b72391"
   d="m 255.999,8.171 -10.894,90.139 10.894,90.139 c 7.626,5.447 15.251,10.904 30.502,10.904 V 38.673 C 286.502,21.821 272.841,8.171 255.999,8.171 Z"
   id="path7-1-0-4-4-5-0-3-8-9-43-11-1-9-8-8-4-5-0-2-6-75-6-6-2-0" />
	<path
   style="fill:#b72391"
   d="M 317.00399,110.96523 306.11,124.189 l 10.894,64.272 c 7.626,-5.447 15.251,-10.894 30.502,-10.894 l -10e-6,-44.71053 c 0,-16.842 -13.661,-21.89124 -30.502,-21.89124 z"
   id="path8-2-6-6-0-6-9-7-4-2-7-3-0-2-4-9-8-0-3-2-7-87-8-4-2-4" />
	<path
   style="fill:#b72391"
   d="m 408.51,148.448 v 50.906 c -15.251,0 -22.877,-5.447 -30.502,-10.894 l -10.894,-35.257 10.894,-35.257 c 16.841,0 30.502,13.661 30.502,30.502 z"
   id="path9-9-8-9-6-6-1-3-3-7-9-1-6-2-8-7-1-81-2-6-3-0-7-7-0-2" />
</g><g
         id="g14-3-9-2-2-4-9-2-7-4-0-5-3-4-1-7-2-2-1-1-6-4-9-4-2-9"
         transform="rotate(60,4152.5233,11726.749)">
	<path
   style="fill:#f21897"
   d="m 133.99099,230.78791 1e-5,50.42109 c -7.593,5.425 -15.218,10.828 -30.404,10.828 -0.033,0 -0.098,-50.06288 -0.098,-50.06288 0,-16.841 13.66,-11.18621 30.502,-11.18621 z"
   id="path10-1-2-2-9-0-6-6-1-2-0-8-2-7-0-6-8-2-7-0-5-8-0-8-1-6" />
	<path
   style="fill:#f21897"
   d="m 194.99499,117.70674 1e-5,70.75326 c -7.626,5.447 -15.251,10.894 -30.502,10.894 l -1e-5,-64.80883 c 0,-16.853 13.661,-16.83843 30.502,-16.83843 z"
   id="path11-9-6-47-9-0-2-5-3-5-2-1-0-7-3-4-9-69-5-6-6-0-3-5-7-1" />
	<path
   style="fill:#f21897"
   d="M 255.999,8.171 V 188.45 c -7.626,-5.436 -15.262,-10.883 -30.502,-10.883 V 81.562 38.673 c 0,-16.852 13.661,-30.502 30.502,-30.502 z"
   id="path12-4-6-7-0-4-5-2-8-2-2-3-6-5-0-3-3-1-6-1-3-4-3-8-5-0" />
	<path
   style="fill:#f21897"
   d="m 317.00399,114.27247 1e-5,74.18853 c -7.626,5.447 -15.251,10.894 -30.491,10.894 -0.011,0 -0.011,-74.96402 -0.011,-74.96402 0,-16.843 13.66,-10.11851 30.502,-10.11851 z"
   id="path13-7-4-5-8-6-4-6-0-4-6-3-1-4-4-0-6-042-5-5-9-2-3-2-1-4" />
	<path
   style="fill:#f21897"
   d="m 378.008,117.946 v 70.514 c -7.626,-5.447 -15.251,-10.894 -30.502,-10.894 v -29.119 c 0,-16.84 13.66,-30.501 30.502,-30.501 z"
   id="path14-8-9-48-1-2-4-5-9-4-90-97-5-8-4-3-8-7-4-9-4-9-7-6-7-2" />
</g><path
         d="m 12324.425,2650.3345 c -4.158,-7.201 -20.623,-20.253 -29.832,-16.525 l 6.275,-9.206 c 0,0 7.382,-10.749 -3.28,-29.217 -4.157,-7.201 -10.302,-12.549 -17.34,-15.775 l 64.087,-37 c 18.467,-10.662 24.817,-34.36 14.154,-52.828 -10.662,-18.467 -34.36,-24.817 -52.827,-14.155 l -67.261,38.833 c 0.725,-7.708 -0.834,-15.704 -4.992,-22.905 -10.662,-18.467 -34.36,-24.817 -52.827,-14.155 l -66.828,38.584 c 0.725,-7.709 -0.834,-15.704 -4.992,-22.905 -10.662,-18.467 -34.359,-24.817 -52.832,-14.152 l -8.11,4.8075 c -76.703,44.284 -10.578,11.145 60.924,122.0408 23.251,36.0605 62.019,108.6097 73.89,129.1717 21.292,36.8781 28.277,25.5784 65.435,4.1252 l 62.201,-35.9122 c 18.467,-10.662 24.817,-34.36 14.155,-52.827 z m -14.151,8.17 c 6.157,10.664 2.49,24.349 -8.174,30.506 l -36.405,21.018 c -2.488,-7.093 -1.94,-12.791 -1.284,-19.561 0.807,-8.317 1.681,-17.571 -3.24,-29.4 l 18.599,-10.738 c 10.662,-6.156 24.347,-2.49 30.504,8.175 z m -159.413,-4.191 47.69,-27.534 c 7.783,10.178 16.236,14.049 23.844,17.51 6.19,2.816 11.398,5.189 16.296,10.889 l -65.499,37.815 -22.332,-38.68 z m -30.502,-52.832 65.499,-37.816 c 2.49,7.096 1.942,12.796 1.286,19.568 -0.805,8.317 -1.679,17.569 3.238,29.394 l -47.693,27.536 -22.332,-38.681 z m -30.502,-52.831 47.691,-27.535 c 7.783,10.176 16.234,14.047 23.841,17.507 6.191,2.817 11.399,5.191 16.298,10.892 l -65.498,37.816 z m 193.58,54.906 c 6.157,10.665 2.49,24.35 -8.174,30.507 l -22.263,12.853 c -7.782,-10.171 -16.231,-14.041 -23.837,-17.501 -6.192,-2.817 -11.403,-5.192 -16.303,-10.897 l 40.071,-23.136 c 10.663,-6.156 24.349,-2.49 30.506,8.174 z m 30.396,-113.777 c 10.664,-6.157 24.349,-2.49 30.506,8.175 6.157,10.664 2.49,24.349 -8.174,30.506 l -131.473,75.906 c -2.486,-7.092 -1.938,-12.789 -1.283,-19.557 0.806,-8.319 1.68,-17.576 -3.242,-29.405 z m -94.575,9.948 c 6.157,10.664 2.49,24.349 -8.175,30.506 l -19.089,11.021 c -7.783,-10.174 -16.234,-14.045 -23.839,-17.504 -6.191,-2.817 -11.4,-5.192 -16.3,-10.894 l 36.897,-21.303 c 10.665,-6.158 24.349,-2.491 30.506,8.174 z m -124.648,1.524 c 6.157,10.664 2.49,24.349 -8.174,30.506 l -5.213,3.009 c -7.766,-10.117 -16.194,-13.976 -23.781,-17.429 -6.202,-2.821 -11.418,-5.201 -16.323,-10.922 l 22.985,-13.338 c 10.665,-6.158 24.349,-2.49 30.506,8.174 z m 25.714,122.5627 c -36.196,-71.2837 -119.818,-50.9724 -50.913,-90.7554 l -42.592,-18.3743 c 7.786,10.19 16.244,14.063 23.856,17.527 6.166,2.805 11.356,5.169 16.237,10.817 l -13.023,-4.0159 c -4.3,-1.3257 -12.891,-9.2964 -10.656,-5.3894 23.126,40.43 73.913,-17.584 33.144,5.738 -3.917,2.239 -10.813,3.7117 -8.572,7.6297 2.265,3.924 59.594,96.0148 63.503,93.7808 23.562,-13.477 -56.375,-66.5759 -49.167,-92.5019 6.502,-23.394 -25.108,5.0415 -35.378,-16.7385 l 27.661,22.1834 97.96,162.3923 c 2.331,3.8639 29.347,37.5196 33.254,35.2636 3.908,-2.256 -11.941,-22.8661 -14.198,-26.7741 l -10.076,-17.453 65.498,-37.815 c 2.489,7.094 1.942,12.792 1.285,19.562 -0.806,8.318 -1.681,17.571 3.239,29.398 l -11.49,6.6342 c -68.56,39.5841 -100.038,-62.6384 -119.572,-101.1085 z"
         id="path15-4-5-1-3-6-9-8-7-3-3-5-5-1-4-0-0-4-2-4-8-61-3-0-4-2" /></g><g
       id="g19-0-2-0-2-6-1-2"
       transform="matrix(0.04148121,0.02394917,-0.02394917,0.04148121,2881.06,1812.2485)"><path
         style="fill:#f99a25;stroke-width:0.801078"
         d="m 12140.843,2635.3587 31.251,54.1285 33.308,19.8848 -6.258,-48.5264 c 0.02,-0.012 -36.372,-62.985 -36.372,-62.985 -43.592,-75.5025 -80.622,-123.8743 -125.812,-97.784 l 48.169,56.74 c 26.582,46.2979 27.939,94.3301 55.714,78.5421 z"
         id="path4-9-1-4-8-3-3-9-9-0-4-2-5-4-6-08-2-2-9-9-4-6-6-7-0" /><polygon
         style="fill:#f27524"
         points="181.923,292.028 408.51,270.241 408.51,199.356 181.923,85.224 "
         id="polygon1-2-0-4-6-4-0-7-3-4-2-0-9-4-0-9-0-5-0-6-1-3-2-5-4-1-5"
         transform="matrix(0.4948179,0.8570498,-0.74771056,0.43169092,12199.49,2290.7982)" /><g
         id="g2-3-7-3-4-0-5-6-7-0-6-0-3-3-8-6-5-6-9-4-7-9-2-2-6-1-5"
         transform="rotate(60,4152.5233,11726.749)">
	<path
   style="fill:#f99a25"
   d="m 164.493,199.356 c 0,0 0.065,81.778 0.098,81.778 l 30.404,10.894 V 166.676 Z"
   id="path1-7-8-0-6-3-5-8-8-3-91-3-1-0-8-4-9-5-0-9-7-0-2-6-2-1-2" />
	<rect
   x="225.49699"
   y="166.672"
   style="fill:#f99a25"
   width="30.502001"
   height="125.353"
   id="rect1-5-6-3-2-9-2-9-7-2-33-39-9-3-5-3-4-9-4-5-1-8-0-5-8-7-9" />
	<rect
   x="286.50201"
   y="166.672"
   style="fill:#f99a25"
   width="30.502001"
   height="125.353"
   id="rect2-3-9-8-0-5-1-9-0-4-8-1-0-4-0-0-3-6-9-0-0-1-8-5-8-9-0-0" />
	<polygon
   style="fill:#f99a25"
   points="347.506,166.676 347.506,292.028 378.008,292.028 378.008,194.16 "
   id="polygon2-2-8-9-8-9-0-6-1-0-5-43-7-9-96-3-9-07-1-4-5-5-5-7-6-4-2" />
</g><g
         id="g9-7-4-0-4-3-8-0-8-0-4-4-0-05-1-4-7-5-1-7-9-0-2-9-0-0-8"
         transform="rotate(60,4152.5233,11726.749)">
	<path
   style="fill:#b72391"
   d="m 164.49299,231.09788 1e-5,39.15212 c -15.251,0.022 -22.855,5.501 -30.502,10.959 l -2.00958,-56.178 2.00957,8.10531 c 16.841,-0.001 30.502,-18.87943 30.502,-2.03843 z"
   id="path5-3-9-5-7-8-0-3-8-3-60-53-3-9-15-8-7-0-1-2-7-9-9-6-7-8-3" />
	<path
   style="fill:#b72391"
   d="M 194.99499,119.19458 184.101,119.76 l 10.894,68.701 c 7.626,-5.447 15.251,-10.894 30.502,-10.894 l -1e-5,-50.39931 c 0,-16.853 -13.66,-7.97311 -30.502,-7.97311 z"
   id="path6-6-2-9-2-0-4-3-5-4-7-8-6-46-9-8-5-6-3-7-7-6-0-0-0-5-8" />
	<path
   style="fill:#b72391"
   d="m 255.999,8.171 -10.894,90.139 10.894,90.139 c 7.626,5.447 15.251,10.904 30.502,10.904 V 38.673 C 286.502,21.821 272.841,8.171 255.999,8.171 Z"
   id="path7-1-0-4-4-5-0-3-8-9-43-11-1-9-8-8-4-5-0-2-6-3-2-4-1-1-0" />
	<path
   style="fill:#b72391"
   d="M 317.00399,110.96523 306.11,124.189 l 10.894,64.272 c 7.626,-5.447 15.251,-10.894 30.502,-10.894 l -10e-6,-44.71053 c 0,-16.842 -13.661,-21.89124 -30.502,-21.89124 z"
   id="path8-2-6-6-0-6-9-7-4-2-7-3-0-2-4-9-8-0-3-2-7-8-8-1-0-6-4" />
	<path
   style="fill:#b72391"
   d="m 408.51,148.448 v 50.906 c -15.251,0 -22.877,-5.447 -30.502,-10.894 l -10.894,-35.257 10.894,-35.257 c 16.841,0 30.502,13.661 30.502,30.502 z"
   id="path9-9-8-9-6-6-1-3-3-7-9-1-6-2-8-7-1-81-2-6-3-5-3-0-1-6-0" />
</g><g
         id="g14-3-9-2-2-4-9-2-7-4-0-5-3-4-1-7-2-2-1-1-6-6-8-4-3-2-9"
         transform="rotate(60,4152.5233,11726.749)">
	<path
   style="fill:#f21897"
   d="m 133.99099,230.78791 1e-5,50.42109 c -7.593,5.425 -15.218,10.828 -30.404,10.828 -0.033,0 -0.098,-50.06288 -0.098,-50.06288 0,-16.841 13.66,-11.18621 30.502,-11.18621 z"
   id="path10-1-2-2-9-0-6-6-1-2-0-8-2-7-0-6-8-2-7-0-5-1-0-8-7-1-1" />
	<path
   style="fill:#f21897"
   d="m 194.99499,117.70674 1e-5,70.75326 c -7.626,5.447 -15.251,10.894 -30.502,10.894 l -1e-5,-64.80883 c 0,-16.853 13.661,-16.83843 30.502,-16.83843 z"
   id="path11-9-6-47-9-0-2-5-3-5-2-1-0-7-3-4-9-69-5-6-6-1-4-7-7-9-9" />
	<path
   style="fill:#f21897"
   d="M 255.999,8.171 V 188.45 c -7.626,-5.436 -15.262,-10.883 -30.502,-10.883 V 81.562 38.673 c 0,-16.852 13.661,-30.502 30.502,-30.502 z"
   id="path12-4-6-7-0-4-5-2-8-2-2-3-6-5-0-3-3-1-6-1-3-5-0-0-2-6-6" />
	<path
   style="fill:#f21897"
   d="m 317.00399,114.27247 1e-5,74.18853 c -7.626,5.447 -15.251,10.894 -30.491,10.894 -0.011,0 -0.011,-74.96402 -0.011,-74.96402 0,-16.843 13.66,-10.11851 30.502,-10.11851 z"
   id="path13-7-4-5-8-6-4-6-0-4-6-3-1-4-4-0-6-042-5-5-9-9-9-8-6-4-2" />
	<path
   style="fill:#f21897"
   d="m 378.008,117.946 v 70.514 c -7.626,-5.447 -15.251,-10.894 -30.502,-10.894 v -29.119 c 0,-16.84 13.66,-30.501 30.502,-30.501 z"
   id="path14-8-9-48-1-2-4-5-9-4-90-97-5-8-4-3-8-7-4-9-4-8-1-6-4-8-5" />
</g><path
         d="m 12324.425,2650.3345 c -4.158,-7.201 -20.623,-20.253 -29.832,-16.525 l 6.275,-9.206 c 0,0 7.382,-10.749 -3.28,-29.217 -4.157,-7.201 -10.302,-12.549 -17.34,-15.775 l 64.087,-37 c 18.467,-10.662 24.817,-34.36 14.154,-52.828 -10.662,-18.467 -34.36,-24.817 -52.827,-14.155 l -67.261,38.833 c 0.725,-7.708 -0.834,-15.704 -4.992,-22.905 -10.662,-18.467 -34.36,-24.817 -52.827,-14.155 l -66.828,38.584 c 0.725,-7.709 -0.834,-15.704 -4.992,-22.905 -10.662,-18.467 -34.359,-24.817 -52.832,-14.152 l -8.11,4.8075 c -76.703,44.284 -10.578,11.145 60.924,122.0408 23.251,36.0605 62.019,108.6097 73.89,129.1717 21.292,36.8781 28.277,25.5784 65.435,4.1252 l 62.201,-35.9122 c 18.467,-10.662 24.817,-34.36 14.155,-52.827 z m -14.151,8.17 c 6.157,10.664 2.49,24.349 -8.174,30.506 l -36.405,21.018 c -2.488,-7.093 -1.94,-12.791 -1.284,-19.561 0.807,-8.317 1.681,-17.571 -3.24,-29.4 l 18.599,-10.738 c 10.662,-6.156 24.347,-2.49 30.504,8.175 z m -159.413,-4.191 47.69,-27.534 c 7.783,10.178 16.236,14.049 23.844,17.51 6.19,2.816 11.398,5.189 16.296,10.889 l -65.499,37.815 -22.332,-38.68 z m -30.502,-52.832 65.499,-37.816 c 2.49,7.096 1.942,12.796 1.286,19.568 -0.805,8.317 -1.679,17.569 3.238,29.394 l -47.693,27.536 -22.332,-38.681 z m -30.502,-52.831 47.691,-27.535 c 7.783,10.176 16.234,14.047 23.841,17.507 6.191,2.817 11.399,5.191 16.298,10.892 l -65.498,37.816 z m 193.58,54.906 c 6.157,10.665 2.49,24.35 -8.174,30.507 l -22.263,12.853 c -7.782,-10.171 -16.231,-14.041 -23.837,-17.501 -6.192,-2.817 -11.403,-5.192 -16.303,-10.897 l 40.071,-23.136 c 10.663,-6.156 24.349,-2.49 30.506,8.174 z m 30.396,-113.777 c 10.664,-6.157 24.349,-2.49 30.506,8.175 6.157,10.664 2.49,24.349 -8.174,30.506 l -131.473,75.906 c -2.486,-7.092 -1.938,-12.789 -1.283,-19.557 0.806,-8.319 1.68,-17.576 -3.242,-29.405 z m -94.575,9.948 c 6.157,10.664 2.49,24.349 -8.175,30.506 l -19.089,11.021 c -7.783,-10.174 -16.234,-14.045 -23.839,-17.504 -6.191,-2.817 -11.4,-5.192 -16.3,-10.894 l 36.897,-21.303 c 10.665,-6.158 24.349,-2.491 30.506,8.174 z m -124.648,1.524 c 6.157,10.664 2.49,24.349 -8.174,30.506 l -5.213,3.009 c -7.766,-10.117 -16.194,-13.976 -23.781,-17.429 -6.202,-2.821 -11.418,-5.201 -16.323,-10.922 l 22.985,-13.338 c 10.665,-6.158 24.349,-2.49 30.506,8.174 z m 25.714,122.5627 c -36.196,-71.2837 -119.818,-50.9724 -50.913,-90.7554 l -42.592,-18.3743 c 7.786,10.19 16.244,14.063 23.856,17.527 6.166,2.805 11.356,5.169 16.237,10.817 l -13.023,-4.0159 c -4.3,-1.3257 -12.891,-9.2964 -10.656,-5.3894 23.126,40.43 73.913,-17.584 33.144,5.738 -3.917,2.239 -10.813,3.7117 -8.572,7.6297 2.265,3.924 59.594,96.0148 63.503,93.7808 23.562,-13.477 -56.375,-66.5759 -49.167,-92.5019 6.502,-23.394 -25.108,5.0415 -35.378,-16.7385 l 27.661,22.1834 97.96,162.3923 c 2.331,3.8639 29.347,37.5196 33.254,35.2636 3.908,-2.256 -11.941,-22.8661 -14.198,-26.7741 l -10.076,-17.453 65.498,-37.815 c 2.489,7.094 1.942,12.792 1.285,19.562 -0.806,8.318 -1.681,17.571 3.239,29.398 l -11.49,6.6342 c -68.56,39.5841 -100.038,-62.6384 -119.572,-101.1085 z"
         id="path15-4-5-1-3-6-9-8-7-3-3-5-5-1-4-0-0-4-2-4-8-4-9-2-5-0-4" /></g><g
       id="g19-0-1-6-4-2-8-4"
       transform="matrix(-0.04148121,-0.02394917,0.02394917,-0.04148121,3748.8749,2611.9047)"><path
         style="fill:#f99a25;stroke-width:0.801078"
         d="m 12140.843,2635.3587 31.251,54.1285 33.308,19.8848 -6.258,-48.5264 c 0.02,-0.012 -36.372,-62.985 -36.372,-62.985 -43.592,-75.5025 -80.622,-123.8743 -125.812,-97.784 l 48.169,56.74 c 26.582,46.2979 27.939,94.3301 55.714,78.5421 z"
         id="path4-9-1-4-8-3-3-9-9-0-4-2-5-4-6-08-2-2-9-0-2-7-0-1-9" /><polygon
         style="fill:#f27524"
         points="181.923,292.028 408.51,270.241 408.51,199.356 181.923,85.224 "
         id="polygon1-2-0-4-6-4-0-7-3-4-2-0-9-4-0-9-0-5-0-6-1-30-5-9-2-0-9"
         transform="matrix(0.4948179,0.8570498,-0.74771056,0.43169092,12199.49,2290.7982)" /><g
         id="g2-3-7-3-4-0-5-6-7-0-6-0-3-3-8-6-5-6-9-4-7-4-4-3-9-2-3"
         transform="rotate(60,4152.5233,11726.749)">
	<path
   style="fill:#f99a25"
   d="m 164.493,199.356 c 0,0 0.065,81.778 0.098,81.778 l 30.404,10.894 V 166.676 Z"
   id="path1-7-8-0-6-3-5-8-8-3-91-3-1-0-8-4-9-5-0-9-7-4-4-9-0-2-6" />
	<rect
   x="225.49699"
   y="166.672"
   style="fill:#f99a25"
   width="30.502001"
   height="125.353"
   id="rect1-5-6-3-2-9-2-9-7-2-33-39-9-3-5-3-4-9-4-5-1-4-9-2-9-9-0" />
	<rect
   x="286.50201"
   y="166.672"
   style="fill:#f99a25"
   width="30.502001"
   height="125.353"
   id="rect2-3-9-8-0-5-1-9-0-4-8-1-0-4-0-0-3-6-9-0-0-1-4-9-8-9-7-5" />
	<polygon
   style="fill:#f99a25"
   points="347.506,166.676 347.506,292.028 378.008,292.028 378.008,194.16 "
   id="polygon2-2-8-9-8-9-0-6-1-0-5-43-7-9-96-3-9-07-1-4-5-7-3-3-4-5-0" />
</g><g
         id="g9-7-4-0-4-3-8-0-8-0-4-4-0-05-1-4-7-5-1-7-9-6-6-0-5-6-2"
         transform="rotate(60,4152.5233,11726.749)">
	<path
   style="fill:#b72391"
   d="m 164.49299,231.09788 1e-5,39.15212 c -15.251,0.022 -22.855,5.501 -30.502,10.959 l -2.00958,-56.178 2.00957,8.10531 c 16.841,-0.001 30.502,-18.87943 30.502,-2.03843 z"
   id="path5-3-9-5-7-8-0-3-8-3-60-53-3-9-15-8-7-0-1-2-7-3-0-1-1-4-9" />
	<path
   style="fill:#b72391"
   d="M 194.99499,119.19458 184.101,119.76 l 10.894,68.701 c 7.626,-5.447 15.251,-10.894 30.502,-10.894 l -1e-5,-50.39931 c 0,-16.853 -13.66,-7.97311 -30.502,-7.97311 z"
   id="path6-6-2-9-2-0-4-3-5-4-7-8-6-46-9-8-5-6-3-7-7-1-5-7-0-6-4" />
	<path
   style="fill:#b72391"
   d="m 255.999,8.171 -10.894,90.139 10.894,90.139 c 7.626,5.447 15.251,10.904 30.502,10.904 V 38.673 C 286.502,21.821 272.841,8.171 255.999,8.171 Z"
   id="path7-1-0-4-4-5-0-3-8-9-43-11-1-9-8-8-4-5-0-2-6-7-0-8-3-3-3" />
	<path
   style="fill:#b72391"
   d="M 317.00399,110.96523 306.11,124.189 l 10.894,64.272 c 7.626,-5.447 15.251,-10.894 30.502,-10.894 l -10e-6,-44.71053 c 0,-16.842 -13.661,-21.89124 -30.502,-21.89124 z"
   id="path8-2-6-6-0-6-9-7-4-2-7-3-0-2-4-9-8-0-3-2-7-5-2-9-7-7-5" />
	<path
   style="fill:#b72391"
   d="m 408.51,148.448 v 50.906 c -15.251,0 -22.877,-5.447 -30.502,-10.894 l -10.894,-35.257 10.894,-35.257 c 16.841,0 30.502,13.661 30.502,30.502 z"
   id="path9-9-8-9-6-6-1-3-3-7-9-1-6-2-8-7-1-81-2-6-3-9-9-1-8-9-1" />
</g><g
         id="g14-3-9-2-2-4-9-2-7-4-0-5-3-4-1-7-2-2-1-1-6-62-4-5-8-7-7"
         transform="rotate(60,4152.5233,11726.749)">
	<path
   style="fill:#f21897"
   d="m 133.99099,230.78791 1e-5,50.42109 c -7.593,5.425 -15.218,10.828 -30.404,10.828 -0.033,0 -0.098,-50.06288 -0.098,-50.06288 0,-16.841 13.66,-11.18621 30.502,-11.18621 z"
   id="path10-1-2-2-9-0-6-6-1-2-0-8-2-7-0-6-8-2-7-0-5-17-3-4-6-4-4" />
	<path
   style="fill:#f21897"
   d="m 194.99499,117.70674 1e-5,70.75326 c -7.626,5.447 -15.251,10.894 -30.502,10.894 l -1e-5,-64.80883 c 0,-16.853 13.661,-16.83843 30.502,-16.83843 z"
   id="path11-9-6-47-9-0-2-5-3-5-2-1-0-7-3-4-9-69-5-6-6-8-5-9-0-9-3" />
	<path
   style="fill:#f21897"
   d="M 255.999,8.171 V 188.45 c -7.626,-5.436 -15.262,-10.883 -30.502,-10.883 V 81.562 38.673 c 0,-16.852 13.661,-30.502 30.502,-30.502 z"
   id="path12-4-6-7-0-4-5-2-8-2-2-3-6-5-0-3-3-1-6-1-3-57-1-2-4-1-1" />
	<path
   style="fill:#f21897"
   d="m 317.00399,114.27247 1e-5,74.18853 c -7.626,5.447 -15.251,10.894 -30.491,10.894 -0.011,0 -0.011,-74.96402 -0.011,-74.96402 0,-16.843 13.66,-10.11851 30.502,-10.11851 z"
   id="path13-7-4-5-8-6-4-6-0-4-6-3-1-4-4-0-6-042-5-5-9-4-7-5-6-7-4" />
	<path
   style="fill:#f21897"
   d="m 378.008,117.946 v 70.514 c -7.626,-5.447 -15.251,-10.894 -30.502,-10.894 v -29.119 c 0,-16.84 13.66,-30.501 30.502,-30.501 z"
   id="path14-8-9-48-1-2-4-5-9-4-90-97-5-8-4-3-8-7-4-9-4-1-4-7-7-0-6" />
</g><path
         d="m 12324.425,2650.3345 c -4.158,-7.201 -20.623,-20.253 -29.832,-16.525 l 6.275,-9.206 c 0,0 7.382,-10.749 -3.28,-29.217 -4.157,-7.201 -10.302,-12.549 -17.34,-15.775 l 64.087,-37 c 18.467,-10.662 24.817,-34.36 14.154,-52.828 -10.662,-18.467 -34.36,-24.817 -52.827,-14.155 l -67.261,38.833 c 0.725,-7.708 -0.834,-15.704 -4.992,-22.905 -10.662,-18.467 -34.36,-24.817 -52.827,-14.155 l -66.828,38.584 c 0.725,-7.709 -0.834,-15.704 -4.992,-22.905 -10.662,-18.467 -34.359,-24.817 -52.832,-14.152 l -8.11,4.8075 c -76.703,44.284 -10.578,11.145 60.924,122.0408 23.251,36.0605 62.019,108.6097 73.89,129.1717 21.292,36.8781 28.277,25.5784 65.435,4.1252 l 62.201,-35.9122 c 18.467,-10.662 24.817,-34.36 14.155,-52.827 z m -14.151,8.17 c 6.157,10.664 2.49,24.349 -8.174,30.506 l -36.405,21.018 c -2.488,-7.093 -1.94,-12.791 -1.284,-19.561 0.807,-8.317 1.681,-17.571 -3.24,-29.4 l 18.599,-10.738 c 10.662,-6.156 24.347,-2.49 30.504,8.175 z m -159.413,-4.191 47.69,-27.534 c 7.783,10.178 16.236,14.049 23.844,17.51 6.19,2.816 11.398,5.189 16.296,10.889 l -65.499,37.815 -22.332,-38.68 z m -30.502,-52.832 65.499,-37.816 c 2.49,7.096 1.942,12.796 1.286,19.568 -0.805,8.317 -1.679,17.569 3.238,29.394 l -47.693,27.536 -22.332,-38.681 z m -30.502,-52.831 47.691,-27.535 c 7.783,10.176 16.234,14.047 23.841,17.507 6.191,2.817 11.399,5.191 16.298,10.892 l -65.498,37.816 z m 193.58,54.906 c 6.157,10.665 2.49,24.35 -8.174,30.507 l -22.263,12.853 c -7.782,-10.171 -16.231,-14.041 -23.837,-17.501 -6.192,-2.817 -11.403,-5.192 -16.303,-10.897 l 40.071,-23.136 c 10.663,-6.156 24.349,-2.49 30.506,8.174 z m 30.396,-113.777 c 10.664,-6.157 24.349,-2.49 30.506,8.175 6.157,10.664 2.49,24.349 -8.174,30.506 l -131.473,75.906 c -2.486,-7.092 -1.938,-12.789 -1.283,-19.557 0.806,-8.319 1.68,-17.576 -3.242,-29.405 z m -94.575,9.948 c 6.157,10.664 2.49,24.349 -8.175,30.506 l -19.089,11.021 c -7.783,-10.174 -16.234,-14.045 -23.839,-17.504 -6.191,-2.817 -11.4,-5.192 -16.3,-10.894 l 36.897,-21.303 c 10.665,-6.158 24.349,-2.491 30.506,8.174 z m -124.648,1.524 c 6.157,10.664 2.49,24.349 -8.174,30.506 l -5.213,3.009 c -7.766,-10.117 -16.194,-13.976 -23.781,-17.429 -6.202,-2.821 -11.418,-5.201 -16.323,-10.922 l 22.985,-13.338 c 10.665,-6.158 24.349,-2.49 30.506,8.174 z m 25.714,122.5627 c -36.196,-71.2837 -119.818,-50.9724 -50.913,-90.7554 l -42.592,-18.3743 c 7.786,10.19 16.244,14.063 23.856,17.527 6.166,2.805 11.356,5.169 16.237,10.817 l -13.023,-4.0159 c -4.3,-1.3257 -12.891,-9.2964 -10.656,-5.3894 23.126,40.43 73.913,-17.584 33.144,5.738 -3.917,2.239 -10.813,3.7117 -8.572,7.6297 2.265,3.924 59.594,96.0148 63.503,93.7808 23.562,-13.477 -56.375,-66.5759 -49.167,-92.5019 6.502,-23.394 -25.108,5.0415 -35.378,-16.7385 l 27.661,22.1834 97.96,162.3923 c 2.331,3.8639 29.347,37.5196 33.254,35.2636 3.908,-2.256 -11.941,-22.8661 -14.198,-26.7741 l -10.076,-17.453 65.498,-37.815 c 2.489,7.094 1.942,12.792 1.285,19.562 -0.806,8.318 -1.681,17.571 3.239,29.398 l -11.49,6.6342 c -68.56,39.5841 -100.038,-62.6384 -119.572,-101.1085 z"
         id="path15-4-5-1-3-6-9-8-7-3-3-5-5-1-4-0-0-4-2-4-8-8-3-4-6-6-9" /></g><g
       id="g19-0-9-1-9-0-0-4"
       transform="matrix(-0.02394917,0.04148121,-0.04148121,-0.02394917,3714.5317,1779.2984)"><path
         style="fill:#f99a25;stroke-width:0.801078"
         d="m 12140.843,2635.3587 31.251,54.1285 33.308,19.8848 -6.258,-48.5264 c 0.02,-0.012 -36.372,-62.985 -36.372,-62.985 -43.592,-75.5025 -80.622,-123.8743 -125.812,-97.784 l 48.169,56.74 c 26.582,46.2979 27.939,94.3301 55.714,78.5421 z"
         id="path4-9-1-4-8-3-3-9-9-0-4-2-5-4-6-08-2-2-9-7-4-9-9-8-2" /><polygon
         style="fill:#f27524"
         points="181.923,292.028 408.51,270.241 408.51,199.356 181.923,85.224 "
         id="polygon1-2-0-4-6-4-0-7-3-4-2-0-9-4-0-9-0-5-0-6-1-5-6-4-7-5-2"
         transform="matrix(0.4948179,0.8570498,-0.74771056,0.43169092,12199.49,2290.7982)" /><g
         id="g2-3-7-3-4-0-5-6-7-0-6-0-3-3-8-6-5-6-9-4-7-3-9-5-5-3-6"
         transform="rotate(60,4152.5233,11726.749)">
	<path
   style="fill:#f99a25"
   d="m 164.493,199.356 c 0,0 0.065,81.778 0.098,81.778 l 30.404,10.894 V 166.676 Z"
   id="path1-7-8-0-6-3-5-8-8-3-91-3-1-0-8-4-9-5-0-9-7-8-4-9-9-9-4" />
	<rect
   x="225.49699"
   y="166.672"
   style="fill:#f99a25"
   width="30.502001"
   height="125.353"
   id="rect1-5-6-3-2-9-2-9-7-2-33-39-9-3-5-3-4-9-4-5-1-83-2-3-7-4-1" />
	<rect
   x="286.50201"
   y="166.672"
   style="fill:#f99a25"
   width="30.502001"
   height="125.353"
   id="rect2-3-9-8-0-5-1-9-0-4-8-1-0-4-0-0-3-6-9-0-0-1-1-2-5-8-1-2" />
	<polygon
   style="fill:#f99a25"
   points="347.506,166.676 347.506,292.028 378.008,292.028 378.008,194.16 "
   id="polygon2-2-8-9-8-9-0-6-1-0-5-43-7-9-96-3-9-07-1-4-5-8-6-7-5-5-8" />
</g><g
         id="g9-7-4-0-4-3-8-0-8-0-4-4-0-05-1-4-7-5-1-7-9-9-4-0-3-4-8"
         transform="rotate(60,4152.5233,11726.749)">
	<path
   style="fill:#b72391"
   d="m 164.49299,231.09788 1e-5,39.15212 c -15.251,0.022 -22.855,5.501 -30.502,10.959 l -2.00958,-56.178 2.00957,8.10531 c 16.841,-0.001 30.502,-18.87943 30.502,-2.03843 z"
   id="path5-3-9-5-7-8-0-3-8-3-60-53-3-9-15-8-7-0-1-2-7-6-1-8-3-1-9" />
	<path
   style="fill:#b72391"
   d="M 194.99499,119.19458 184.101,119.76 l 10.894,68.701 c 7.626,-5.447 15.251,-10.894 30.502,-10.894 l -1e-5,-50.39931 c 0,-16.853 -13.66,-7.97311 -30.502,-7.97311 z"
   id="path6-6-2-9-2-0-4-3-5-4-7-8-6-46-9-8-5-6-3-7-7-4-2-1-8-5-2" />
	<path
   style="fill:#b72391"
   d="m 255.999,8.171 -10.894,90.139 10.894,90.139 c 7.626,5.447 15.251,10.904 30.502,10.904 V 38.673 C 286.502,21.821 272.841,8.171 255.999,8.171 Z"
   id="path7-1-0-4-4-5-0-3-8-9-43-11-1-9-8-8-4-5-0-2-6-33-8-9-3-5-8" />
	<path
   style="fill:#b72391"
   d="M 317.00399,110.96523 306.11,124.189 l 10.894,64.272 c 7.626,-5.447 15.251,-10.894 30.502,-10.894 l -10e-6,-44.71053 c 0,-16.842 -13.661,-21.89124 -30.502,-21.89124 z"
   id="path8-2-6-6-0-6-9-7-4-2-7-3-0-2-4-9-8-0-3-2-7-3-8-9-7-4-8" />
	<path
   style="fill:#b72391"
   d="m 408.51,148.448 v 50.906 c -15.251,0 -22.877,-5.447 -30.502,-10.894 l -10.894,-35.257 10.894,-35.257 c 16.841,0 30.502,13.661 30.502,30.502 z"
   id="path9-9-8-9-6-6-1-3-3-7-9-1-6-2-8-7-1-81-2-6-3-8-9-7-9-9-8" />
</g><g
         id="g14-3-9-2-2-4-9-2-7-4-0-5-3-4-1-7-2-2-1-1-6-60-2-8-3-8-6"
         transform="rotate(60,4152.5233,11726.749)">
	<path
   style="fill:#f21897"
   d="m 133.99099,230.78791 1e-5,50.42109 c -7.593,5.425 -15.218,10.828 -30.404,10.828 -0.033,0 -0.098,-50.06288 -0.098,-50.06288 0,-16.841 13.66,-11.18621 30.502,-11.18621 z"
   id="path10-1-2-2-9-0-6-6-1-2-0-8-2-7-0-6-8-2-7-0-5-4-8-2-7-3-8" />
	<path
   style="fill:#f21897"
   d="m 194.99499,117.70674 1e-5,70.75326 c -7.626,5.447 -15.251,10.894 -30.502,10.894 l -1e-5,-64.80883 c 0,-16.853 13.661,-16.83843 30.502,-16.83843 z"
   id="path11-9-6-47-9-0-2-5-3-5-2-1-0-7-3-4-9-69-5-6-6-88-8-5-8-8-3" />
	<path
   style="fill:#f21897"
   d="M 255.999,8.171 V 188.45 c -7.626,-5.436 -15.262,-10.883 -30.502,-10.883 V 81.562 38.673 c 0,-16.852 13.661,-30.502 30.502,-30.502 z"
   id="path12-4-6-7-0-4-5-2-8-2-2-3-6-5-0-3-3-1-6-1-3-8-8-3-7-5-8" />
	<path
   style="fill:#f21897"
   d="m 317.00399,114.27247 1e-5,74.18853 c -7.626,5.447 -15.251,10.894 -30.491,10.894 -0.011,0 -0.011,-74.96402 -0.011,-74.96402 0,-16.843 13.66,-10.11851 30.502,-10.11851 z"
   id="path13-7-4-5-8-6-4-6-0-4-6-3-1-4-4-0-6-042-5-5-9-97-6-4-4-2-3" />
	<path
   style="fill:#f21897"
   d="m 378.008,117.946 v 70.514 c -7.626,-5.447 -15.251,-10.894 -30.502,-10.894 v -29.119 c 0,-16.84 13.66,-30.501 30.502,-30.501 z"
   id="path14-8-9-48-1-2-4-5-9-4-90-97-5-8-4-3-8-7-4-9-4-7-8-9-1-2-3" />
</g><path
         d="m 12324.425,2650.3345 c -4.158,-7.201 -20.623,-20.253 -29.832,-16.525 l 6.275,-9.206 c 0,0 7.382,-10.749 -3.28,-29.217 -4.157,-7.201 -10.302,-12.549 -17.34,-15.775 l 64.087,-37 c 18.467,-10.662 24.817,-34.36 14.154,-52.828 -10.662,-18.467 -34.36,-24.817 -52.827,-14.155 l -67.261,38.833 c 0.725,-7.708 -0.834,-15.704 -4.992,-22.905 -10.662,-18.467 -34.36,-24.817 -52.827,-14.155 l -66.828,38.584 c 0.725,-7.709 -0.834,-15.704 -4.992,-22.905 -10.662,-18.467 -34.359,-24.817 -52.832,-14.152 l -8.11,4.8075 c -76.703,44.284 -10.578,11.145 60.924,122.0408 23.251,36.0605 62.019,108.6097 73.89,129.1717 21.292,36.8781 28.277,25.5784 65.435,4.1252 l 62.201,-35.9122 c 18.467,-10.662 24.817,-34.36 14.155,-52.827 z m -14.151,8.17 c 6.157,10.664 2.49,24.349 -8.174,30.506 l -36.405,21.018 c -2.488,-7.093 -1.94,-12.791 -1.284,-19.561 0.807,-8.317 1.681,-17.571 -3.24,-29.4 l 18.599,-10.738 c 10.662,-6.156 24.347,-2.49 30.504,8.175 z m -159.413,-4.191 47.69,-27.534 c 7.783,10.178 16.236,14.049 23.844,17.51 6.19,2.816 11.398,5.189 16.296,10.889 l -65.499,37.815 -22.332,-38.68 z m -30.502,-52.832 65.499,-37.816 c 2.49,7.096 1.942,12.796 1.286,19.568 -0.805,8.317 -1.679,17.569 3.238,29.394 l -47.693,27.536 -22.332,-38.681 z m -30.502,-52.831 47.691,-27.535 c 7.783,10.176 16.234,14.047 23.841,17.507 6.191,2.817 11.399,5.191 16.298,10.892 l -65.498,37.816 z m 193.58,54.906 c 6.157,10.665 2.49,24.35 -8.174,30.507 l -22.263,12.853 c -7.782,-10.171 -16.231,-14.041 -23.837,-17.501 -6.192,-2.817 -11.403,-5.192 -16.303,-10.897 l 40.071,-23.136 c 10.663,-6.156 24.349,-2.49 30.506,8.174 z m 30.396,-113.777 c 10.664,-6.157 24.349,-2.49 30.506,8.175 6.157,10.664 2.49,24.349 -8.174,30.506 l -131.473,75.906 c -2.486,-7.092 -1.938,-12.789 -1.283,-19.557 0.806,-8.319 1.68,-17.576 -3.242,-29.405 z m -94.575,9.948 c 6.157,10.664 2.49,24.349 -8.175,30.506 l -19.089,11.021 c -7.783,-10.174 -16.234,-14.045 -23.839,-17.504 -6.191,-2.817 -11.4,-5.192 -16.3,-10.894 l 36.897,-21.303 c 10.665,-6.158 24.349,-2.491 30.506,8.174 z m -124.648,1.524 c 6.157,10.664 2.49,24.349 -8.174,30.506 l -5.213,3.009 c -7.766,-10.117 -16.194,-13.976 -23.781,-17.429 -6.202,-2.821 -11.418,-5.201 -16.323,-10.922 l 22.985,-13.338 c 10.665,-6.158 24.349,-2.49 30.506,8.174 z m 25.714,122.5627 c -36.196,-71.2837 -119.818,-50.9724 -50.913,-90.7554 l -42.592,-18.3743 c 7.786,10.19 16.244,14.063 23.856,17.527 6.166,2.805 11.356,5.169 16.237,10.817 l -13.023,-4.0159 c -4.3,-1.3257 -12.891,-9.2964 -10.656,-5.3894 23.126,40.43 73.913,-17.584 33.144,5.738 -3.917,2.239 -10.813,3.7117 -8.572,7.6297 2.265,3.924 59.594,96.0148 63.503,93.7808 23.562,-13.477 -56.375,-66.5759 -49.167,-92.5019 6.502,-23.394 -25.108,5.0415 -35.378,-16.7385 l 27.661,22.1834 97.96,162.3923 c 2.331,3.8639 29.347,37.5196 33.254,35.2636 3.908,-2.256 -11.941,-22.8661 -14.198,-26.7741 l -10.076,-17.453 65.498,-37.815 c 2.489,7.094 1.942,12.792 1.285,19.562 -0.806,8.318 -1.681,17.571 3.239,29.398 l -11.49,6.6342 c -68.56,39.5841 -100.038,-62.6384 -119.572,-101.1085 z"
         id="path15-4-5-1-3-6-9-8-7-3-3-5-5-1-4-0-0-4-2-4-8-6-3-0-9-2-3" /></g><circle
       style="fill:url(#linearGradient35-6);stroke:#000000;stroke-width:0.783484;stroke-dasharray:none;stroke-opacity:1"
       id="path16-3-2-0-7-8"
       cx="3315.5486"
       cy="2211.6001"
       r="9.4983912" /><ellipse
       style="fill:url(#linearGradient36-7);stroke:#000000;stroke-width:0.783484;stroke-dasharray:none;stroke-opacity:1"
       id="path18-0-0-9-0-0"
       cx="3315.6663"
       cy="2211.7576"
       rx="9.6362591"
       ry="3.9270642" /><path
       style="fill:url(#linearGradient106);stroke:url(#linearGradient37-3);stroke-width:0.0879284px;stroke-linecap:butt;stroke-linejoin:miter;stroke-opacity:1"
       d="m 3315.2008,2202.5548 c 0,0.096 0,0.1921 0,0.2881 0,0.017 0,0.036 0,0.052 0.01,0.035 0.021,0.064 0.026,0.099 0.01,0.032 -0.01,0.068 0,0.1 0.01,0.036 0.023,0.063 0.026,0.1 0.01,0.066 0,0.1332 0,0.1998 0,0.1165 0,0.2331 0,0.3496 0,0.067 0,0.1331 0,0.1997 0,0.033 0,0.067 0,0.1 0,0.018 0,0.034 0,0.05 -0.01,0.035 -0.022,0.063 -0.026,0.1 -0.01,0.049 0,0.1 0,0.1498 0,0.1165 0,0.233 0,0.3496 0,0.05 0.01,0.1005 0,0.1497 -0.01,0.052 -0.022,0.098 -0.026,0.1499 -0.011,0.1469 0.011,0.3026 0,0.4494 0,0.037 -0.022,0.063 -0.026,0.1 -0.01,0.049 -10e-5,0.1 0,0.1498 -10e-5,0.1166 -10e-5,0.2331 0,0.3496 0,0.05 0.01,0.1006 0,0.1498 -0.01,0.053 -0.021,0.098 -0.026,0.1498 -0.01,0.115 0.01,0.2338 0,0.3496 -0.065,0.622 0,-0.1201 -0.026,0.4994 -0.048,1.0056 -0.01,-0.5715 -0.055,0.7327 -0.01,0.1159 0,0.2324 0,0.3486 -0.01,0.154 -0.019,0.3077 -0.027,0.462 -0.01,0.1283 0,0.3043 0,0.4252 0,0.083 0.01,0.167 0,0.2497 -0.01,0.1364 -0.043,0.2634 -0.052,0.3996 -0.01,0.1485 0.01,0.3003 0,0.4493 -0.01,0.085 -0.022,0.1653 -0.026,0.2499 -0.01,0.099 0.01,0.2 0,0.2994 -0.01,0.2219 -0.043,0.4381 -0.053,0.6598 -0.01,0.1686 0.012,0.34 0,0.5075 0,0.037 -0.021,0.063 -0.026,0.1 -0.01,0.032 0,0.067 0,0.1 0,0.083 0,0.1664 0,0.2497 0,0.05 0.01,0.1006 0,0.1499 -0.01,0.052 -0.023,0.097 -0.026,0.1497 -0.01,0.1476 0.01,0.302 0,0.4495 -0.01,0.068 -0.021,0.1318 -0.026,0.1997 -0.01,0.1097 0.011,0.241 0,0.3496 0,0.037 -0.022,0.063 -0.026,0.1 -0.01,0.049 10e-5,0.1 10e-5,0.1498 0,0.083 0,0.1665 0,0.2497 0,0.05 0.01,0.1006 0,0.1499 -0.01,0.052 -0.021,0.098 -0.026,0.1498 -0.01,0.099 0.01,0.2011 0,0.2996 -0.01,0.052 -0.021,0.098 -0.026,0.1498 -0.01,0.099 0.012,0.2027 0,0.2996 -0.011,0.087 -0.036,0.1658 -0.053,0.2497 -0.01,0.05 -0.016,0.1009 -0.026,0.1499 -0.01,0.034 -0.021,0.063 -0.026,0.1 -0.01,0.033 0,0.067 0,0.1 -0.01,0.084 -0.017,0.1668 -0.026,0.2497 -0.022,0.1882 -0.023,0.1829 -0.053,0.3496 -0.01,0.05 -0.02,0.098 -0.026,0.1497 0,0.032 0,0.067 -1e-4,0.1 0,0.1264 -0.041,0.23 -0.052,0.3496 -10e-5,0.3809 0.011,-0.039 -0.026,0.2497 -0.01,0.032 0.01,0.067 0,0.1 -0.01,0.036 -0.022,0.064 -0.026,0.1 -0.01,0.049 -1e-4,0.1 -1e-4,0.1498 0,0.017 0,0.034 1e-4,0.05 -0.012,0.071 -0.04,0.1292 -0.052,0.1998 0,0.016 0.01,0.036 0,0.05 -0.017,0.033 -0.034,0.066 -0.052,0.099 0,0.017 0,0.035 0,0.05 -0.01,0.02 -0.02,0.028 -0.025,0.049 -0.01,0.029 0.01,0.069 0,0.099 -0.011,0.041 -0.039,0.06 -0.052,0.099 -0.011,0.031 -0.012,0.074 -0.026,0.1 -0.034,0.066 -0.025,-0.1064 -0.052,0.05 -0.01,0.032 0.01,0.073 0,0.1 -0.011,0.031 -0.039,0.024 -0.052,0.05 -0.01,0.011 0,0.034 0,0.05 -0.01,0.035 -0.016,0.069 -0.026,0.1 -0.01,0.019 -0.017,0.033 -0.026,0.05 -0.026,0.05 -0.052,0.1 -0.078,0.1497 0,0.01 -0.1276,0.236 -0.13,0.2497 -0.01,0.032 0.01,0.073 0,0.1 -0.01,0.031 -0.036,0.029 -0.052,0.05 -0.022,0.028 -0.057,0.11 -0.077,0.1489 -0.014,0.027 -0.071,0.1221 -0.077,0.149 0,0.015 0,0.034 0,0.05 -0.011,0.045 -0.065,0.1036 -0.076,0.145 0,0.01 0,0.09 -1e-4,0.099 -0.01,0.019 -0.016,0.03 -0.024,0.046 0,0.03 0.01,0.06 0,0.088 -0.01,0.022 -0.02,0.028 -0.026,0.05 0,0 0,0.2405 0,0.2485 0.018,0.068 0.034,0.018 0.069,0.037 0.018,0.01 0.033,0.039 0.052,0.05 0.01,0.01 0.018,-0.01 0.026,0 0.01,0.01 0.014,0.036 0.024,0.046 0.01,0.01 0.017,-0.01 0.024,0 0.01,0.01 0.014,0.044 0.026,0.05 0.025,0.012 0.052,-1e-4 0.078,-1e-4 0.017,0 0.035,0 0.052,0 0.066,0 0.1321,0 0.1982,1e-4 0.042,0 0.2039,0.011 0.2339,0 0.012,-0.01 0.015,-0.042 0.026,-0.05 0.053,-0.1294 0.1223,-0.021 0.1817,-0.05 0.018,-0.01 0.033,-0.039 0.052,-0.05 0.01,-0.01 0.018,0.01 0.026,0 0.1006,-0.096 0.1486,-0.1763 0.2365,-0.3027 0.1328,-0.1912 0.074,-0.092 0.1818,-0.2997 0.017,-0.033 0.037,-0.063 0.052,-0.1 0.06,-0.1435 0.055,-0.1809 0.1039,-0.3497 0.025,-0.085 0.051,-0.1697 0.079,-0.251 0.025,-0.069 0.056,-0.1288 0.078,-0.2011 0.079,-0.2608 0.1026,-0.3934 0.156,-0.6496 0.017,-0.083 0.04,-0.1632 0.052,-0.2498 1e-4,0 0.052,-0.5962 0.052,-0.5992 0.01,-0.068 0.018,-0.1328 0.026,-0.1997 0.066,-0.5707 -0.011,0.038 0.052,-0.4496 0.01,-0.067 0.015,-0.1345 0.026,-0.1997 0.029,-0.1705 0.077,-0.3285 0.1042,-0.5005 0.013,-0.081 0.017,-0.1669 0.026,-0.2497 0.033,-0.2882 0.077,-0.5683 0.105,-0.86 0,-0.033 0,-0.068 0,-0.1014 0.01,-0.1944 0.015,-0.389 0.026,-0.5826 0.01,-0.1034 0.022,-0.2041 0.028,-0.3075 0,-0.083 -0.01,-0.1668 0,-0.2498 0.01,-0.1972 0.051,-0.3625 0.078,-0.5492 0.01,-0.066 0.018,-0.1325 0.026,-0.1998 0.01,-0.056 -0.01,-0.1217 -10e-5,-0.178 0.01,-0.084 0.023,-0.1652 0.026,-0.2498 0.01,-0.1437 -0.01,-0.2884 0,-0.4321 0.087,-1.4605 -0.01,0.353 0.031,-0.9765 0.01,-0.178 0.023,-0.3539 0.031,-0.5317 0.1014,-2.3197 -0.015,0.2978 0.033,-1.6461 0.044,-1.8198 0.031,1.0289 0.031,-1.2518 0,-0.4211 0,-0.8421 0,-1.2632 0,-0.5373 0,-1.0747 0,-1.6121 0,-0.1702 -0.036,-0.334 -0.053,-0.4992 -0.022,-0.2067 -0.014,-0.2788 -0.052,-0.4494 -0.023,-0.1026 -0.056,-0.1961 -0.078,-0.2997 -0.011,-0.049 -0.019,-0.099 -0.026,-0.1498 0,-0.017 0,-0.035 0,-0.05 -0.039,-0.1516 -0.02,0.093 -0.051,-0.1492 -0.01,-0.032 0.01,-0.068 0,-0.1 -0.01,-0.052 -0.062,-0.077 -0.076,-0.099 -0.019,-0.029 -0.035,-0.067 -0.052,-0.1 -0.01,-0.017 -0.019,-0.03 -0.026,-0.05 -0.011,-0.03 -0.019,-0.063 -0.025,-0.097 0,-0.016 0.01,-0.038 0,-0.05 -0.048,-0.093 -0.074,-0.024 -0.1028,-0.05 -0.072,-0.1368 0.014,0 -0.051,-0.05 -0.01,-0.01 -0.015,-0.035 -0.025,-0.04 -0.017,-0.01 -0.035,10e-5 -0.052,10e-5 -0.017,0 -0.034,0 -0.052,0 0,0 -0.1077,0.01 -0.1147,-10e-5 -0.01,-0.011 -0.017,-0.033 -0.026,-0.05 -0.017,0 -0.036,0.013 -0.052,0 -0.01,-0.01 0.01,-0.031 0,-0.042 -0.01,-0.019 -0.029,0.018 -0.038,0 -0.01,-0.012 0.01,-0.049 0,-0.047 -0.032,0 -0.06,0.039 -0.09,0.058 z"
       id="path30-3-4" /></g></svg>
